<?xml version="1.0" encoding="UTF-8" standalone="no"?>
<!-- Created with Inkscape (http://www.inkscape.org/) -->

<svg
   xmlns:dc="http://purl.org/dc/elements/1.1/"
   xmlns:cc="http://creativecommons.org/ns#"
   xmlns:rdf="http://www.w3.org/1999/02/22-rdf-syntax-ns#"
   xmlns:svg="http://www.w3.org/2000/svg"
   xmlns="http://www.w3.org/2000/svg"
   xmlns:sodipodi="http://sodipodi.sourceforge.net/DTD/sodipodi-0.dtd"
   xmlns:inkscape="http://www.inkscape.org/namespaces/inkscape"
   width="400"
   height="100"
   viewBox="0 0 400.00001 100"
   id="svg2"
   version="1.1"
   inkscape:version="0.92.3 (2405546, 2018-03-11)"
   sodipodi:docname="LogoBU.svg"
   inkscape:export-filename="/home/shibi/Abooy/Personal Projects/first  v2.0/assets/AboutLogo.png"
   inkscape:export-xdpi="68.943779"
   inkscape:export-ydpi="68.943779">
  <defs
     id="defs4" />
  <sodipodi:namedview
     id="base"
     pagecolor="#ffffff"
     bordercolor="#666666"
     borderopacity="1.0"
     inkscape:pageopacity="0.0"
     inkscape:pageshadow="2"
     inkscape:zoom="5.0425553"
     inkscape:cx="227.66849"
     inkscape:cy="26.985422"
     inkscape:document-units="px"
     inkscape:current-layer="text5047"
     showgrid="false"
     inkscape:window-width="1600"
     inkscape:window-height="825"
     inkscape:window-x="-9"
     inkscape:window-y="-9"
     inkscape:window-maximized="1"
     units="px" />
  <metadata
     id="metadata7">
    <rdf:RDF>
      <cc:Work
         rdf:about="">
        <dc:format>image/svg+xml</dc:format>
        <dc:type
           rdf:resource="http://purl.org/dc/dcmitype/StillImage" />
        <dc:title></dc:title>
      </cc:Work>
    </rdf:RDF>
  </metadata>
  <g
     inkscape:label="Layer 1"
     inkscape:groupmode="layer"
     id="layer1"
     transform="translate(0,-952.36216)">
    <g
       id="g4147"
       transform="translate(-48.571429,-268.57143)">
      <g
         id="g4291"
         transform="matrix(0.23885201,0,0,0.23885201,29.531178,1106.5901)"
         inkscape:export-filename="/home/shibi/Abooy/Blender/NewIcon"
         inkscape:export-xdpi="97.318993"
         inkscape:export-ydpi="97.318993">
        <path
           style="fill:#fd9602"
           d="m 195.28444,691.27725 0,-200 200,0 200,0 0,200 0,200 -200,0 -200,0 0,-200 z"
           id="path4307"
           inkscape:connector-curvature="0" />
        <path
           style="fill:#55250b"
           d="m 205.13133,690.66036 0,-191.21094 191.21094,0 191.21094,0 0,191.21094 0,191.21094 -191.21094,0 -191.21094,0 0,-191.21094 z m 323.79198,114.35547 0.83166,-0.68359 0.23897,-78.71094 c 0.27855,-91.75118 0.43551,-86.88782 -3.18908,-98.81347 -1.79596,-5.90908 -2.5921,-7.82609 -5.47828,-13.19106 -4.82254,-8.96435 -10.30577,-15.6358 -18.09736,-22.0191 -4.82949,-3.95658 -6.59412,-5.11859 -12.31673,-8.11054 -5.82003,-3.0429 -7.55928,-3.74613 -13.51553,-5.46472 -5.90559,-1.70397 -7.75148,-2.05805 -13.56302,-2.60163 -6.15231,-0.57544 -7.27039,-0.57657 -13.08594,-0.0131 -7.89821,0.76526 -7.38735,0.66365 -15.14792,3.01293 -5.2805,1.59852 -7.50423,2.51881 -12.30469,5.09227 -6.81545,3.65367 -6.58169,3.4972 -12.80027,8.568 -3.66658,2.98983 -5.84303,5.18567 -9.35749,9.44086 -2.5188,3.04968 -5.12189,6.55561 -5.78463,7.79096 -0.66274,1.23535 -1.32651,2.24401 -1.47505,2.24146 -0.14853,-0.003 -0.82888,-1.01329 -1.51188,-2.2461 -0.68301,-1.2328 -3.23368,-4.67024 -5.66817,-7.63876 -6.23829,-7.60675 -12.82346,-12.98745 -21.80094,-17.81343 -5.46767,-2.93922 -7.45259,-3.77155 -13.08594,-5.4873 -5.87158,-1.78831 -7.48354,-2.1104 -13.91912,-2.7812 -7.23162,-0.75377 -7.32597,-0.75366 -14.64844,0.0175 -6.43733,0.67794 -8.18556,1.02288 -13.81525,2.72589 -6.33732,1.91706 -8.02469,2.65307 -15.82032,6.90065 -5.94244,3.23784 -13.99332,10.08839 -18.88122,16.06617 -5.02493,6.14536 -4.8747,5.92072 -8.55977,12.80027 -2.55394,4.76788 -3.51687,7.09012 -5.16921,12.46629 -3.50666,11.40952 -3.26863,4.6724 -3.4132,96.6068 -0.12708,80.81701 -0.126,80.94938 0.6629,81.73828 0.79011,0.79011 0.80387,0.79019 135.31723,0.79019 127.54375,0 134.57021,-0.0355 135.35869,-0.68359 z m -250.65244,-37.64375 0.10265,-13.71798 52.14844,0.031 c 28.68164,0.0171 52.28027,0.0378 52.4414,0.0461 0.16113,0.008 0.29297,6.16743 0.29297,13.68696 l 0,13.67188 -52.54406,0 -52.54406,0 0.10266,-13.71797 z m 125.86687,13.22852 c -0.1039,-0.27076 -0.14257,-6.46768 -0.0859,-13.77095 l 0.10297,-13.27866 52.23829,-0.0991 52.2383,-0.0991 0.21457,0.88032 c 0.11801,0.48418 0.16547,6.68111 0.10545,13.77095 l -0.10911,12.89063 -52.25781,0.0991 c -41.74555,0.0791 -52.29581,4e-5 -52.44672,-0.39322 z M 278.83267,730.83305 c -0.14511,-0.14511 -0.26177,-18.38395 -0.25925,-40.53076 0.005,-43.56949 0.10028,-46.04281 2.11626,-54.91537 2.78208,-12.24424 12.86318,-24.83851 25.24412,-31.53737 4.50003,-2.43479 12.805,-5.43957 13.88698,-5.02437 0.46672,0.17909 0.53266,9.90558 0.4484,66.13976 l -0.0988,65.9298 -20.53694,0.10107 c -11.29532,0.0556 -20.65567,-0.0177 -20.80078,-0.16276 z m 63.79866,-65.75514 c 0,-36.31051 0.10436,-66.01911 0.23191,-66.01911 0.12755,0 1.93002,0.52756 4.00549,1.17236 5.16761,1.60545 12.41923,5.66676 17.08731,9.56983 7.7333,6.46595 13.85014,15.82518 16.92671,25.89914 2.69597,8.82774 2.8027,11.07345 2.67692,56.32742 l -0.10803,38.86719 -20.41015,0.10114 -20.41016,0.10114 0,-66.01911 z m 61.98059,65.75315 c -0.44747,-0.44747 -0.30516,-80.92915 0.15095,-85.37022 0.99353,-9.67394 5.21364,-19.88816 11.52607,-27.89737 18.36929,-23.30696 51.61831,-26.78571 74.29094,-7.77284 5.30277,4.4468 9.904,10.22322 13.05209,16.38571 2.08608,4.08355 2.46854,5.18916 3.10792,8.98437 1.8513,10.9888 1.93558,13.57677 1.8203,55.89028 l -0.10855,39.84375 -51.78894,0.0991 c -28.48391,0.0545 -51.90676,-0.0187 -52.05078,-0.16276 z"
           id="path4295"
           inkscape:connector-curvature="0" />
      </g>
      <g
         aria-label="Malayala Jaalakam V 2.0.0"
         transform="scale(0.98611628,1.0140792)"
         style="font-style:normal;font-variant:normal;font-weight:normal;font-stretch:normal;line-height:0%;font-family:Ubuntu;-inkscape-font-specification:'Ubuntu, Normal';text-align:start;letter-spacing:0px;word-spacing:0px;writing-mode:lr-tb;text-anchor:start;fill:#fd9602;fill-opacity:1;stroke:none;stroke-width:1px;stroke-linecap:butt;stroke-linejoin:miter;stroke-opacity:1"
         id="text4340">
        <path
           d="m 188.86397,1232.1434 q -0.15015,-0.3603 -0.40539,-0.9158 -0.24024,-0.5556 -0.52551,-1.2012 -0.28528,-0.6456 -0.6156,-1.3213 -0.3153,-0.6907 -0.60058,-1.2912 -0.28528,-0.6156 -0.54052,-1.0961 -0.24024,-0.4805 -0.39038,-0.7357 -0.16516,1.7717 -0.27026,3.8437 -0.1051,2.057 -0.18018,4.159 h -1.42638 q 0.0601,-1.3513 0.13513,-2.7176 0.0751,-1.3813 0.16516,-2.7026 0.1051,-1.3363 0.21021,-2.5975 0.12011,-1.2612 0.25524,-2.3873 h 1.27624 q 0.40539,0.6606 0.87084,1.5615 0.46545,0.9008 0.9309,1.8918 0.46545,0.976 0.90088,1.9669 0.43542,0.976 0.79577,1.7867 0.36034,-0.8107 0.79577,-1.7867 0.43542,-0.9909 0.90087,-1.9669 0.46545,-0.991 0.9309,-1.8918 0.46545,-0.9009 0.87084,-1.5615 h 1.27624 q 0.51049,5.0298 0.76574,10.405 h -1.42638 q -0.0751,-2.102 -0.18018,-4.159 -0.1051,-2.072 -0.27026,-3.8437 -0.15014,0.2552 -0.40539,0.7357 -0.24023,0.4805 -0.52551,1.0961 -0.28527,0.6005 -0.61559,1.2912 -0.31531,0.6757 -0.60059,1.3213 -0.28527,0.6456 -0.54052,1.2012 -0.24023,0.5555 -0.39038,0.9158 z"
           style="font-size:15.0145359px;line-height:1.25"
           id="path823" />
        <path
           d="m 199.82599,1232.5789 q 0.49548,0 0.87084,-0.015 0.39038,-0.03 0.64563,-0.09 v -2.3273 q -0.15015,-0.075 -0.49548,-0.1201 -0.33032,-0.06 -0.81079,-0.06 -0.3153,0 -0.67565,0.045 -0.34534,0.045 -0.64563,0.1952 -0.28527,0.1351 -0.48046,0.3903 -0.19519,0.2403 -0.19519,0.6457 0,0.7507 0.48046,1.051 0.48047,0.2853 1.30627,0.2853 z m -0.12012,-6.9968 q 0.84082,0 1.41137,0.2252 0.58556,0.2102 0.9309,0.6156 0.36035,0.3904 0.51049,0.9459 0.15015,0.5405 0.15015,1.2012 v 4.8797 q -0.18018,0.03 -0.5105,0.09 -0.3153,0.045 -0.72069,0.09 -0.4054,0.045 -0.88586,0.075 -0.46545,0.045 -0.9309,0.045 -0.66064,0 -1.21618,-0.1351 -0.55554,-0.1352 -0.96093,-0.4204 -0.40539,-0.3003 -0.63061,-0.7808 -0.22522,-0.4805 -0.22522,-1.1561 0,-0.6456 0.25525,-1.1111 0.27026,-0.4654 0.7207,-0.7507 0.45043,-0.2853 1.05101,-0.4204 0.60059,-0.1352 1.26122,-0.1352 0.21021,0 0.43543,0.03 0.22521,0.015 0.4204,0.06 0.21021,0.03 0.36035,0.06 0.15015,0.03 0.21021,0.045 v -0.3903 q 0,-0.3454 -0.0751,-0.6757 -0.0751,-0.3453 -0.27026,-0.6006 -0.19519,-0.2702 -0.54052,-0.4204 -0.33032,-0.1651 -0.87084,-0.1651 -0.69067,0 -1.21618,0.1051 -0.5105,0.09 -0.76574,0.1951 l -0.16516,-1.1561 q 0.27026,-0.1201 0.90087,-0.2252 0.63061,-0.1201 1.36632,-0.1201 z"
           style="font-size:15.0145359px;line-height:1.25"
           id="path825" />
        <path
           d="m 207.35554,1233.735 q -1.29125,-0.03 -1.83177,-0.5556 -0.54052,-0.5255 -0.54052,-1.6365 v -9.3691 l 1.39635,-0.2402 v 9.384 q 0,0.3454 0.0601,0.5706 0.06,0.2252 0.19519,0.3603 0.13513,0.1352 0.36034,0.2102 0.22522,0.06 0.55554,0.1052 z"
           style="font-size:15.0145359px;line-height:1.25"
           id="path827" />
        <path
           d="m 211.76137,1232.5789 q 0.49548,0 0.87084,-0.015 0.39038,-0.03 0.64563,-0.09 v -2.3273 q -0.15015,-0.075 -0.49548,-0.1201 -0.33032,-0.06 -0.81079,-0.06 -0.3153,0 -0.67565,0.045 -0.34534,0.045 -0.64563,0.1952 -0.28527,0.1351 -0.48046,0.3903 -0.19519,0.2403 -0.19519,0.6457 0,0.7507 0.48046,1.051 0.48047,0.2853 1.30627,0.2853 z m -0.12012,-6.9968 q 0.84082,0 1.41137,0.2252 0.58557,0.2102 0.9309,0.6156 0.36035,0.3904 0.5105,0.9459 0.15014,0.5405 0.15014,1.2012 v 4.8797 q -0.18017,0.03 -0.51049,0.09 -0.31531,0.045 -0.7207,0.09 -0.40539,0.045 -0.88586,0.075 -0.46545,0.045 -0.9309,0.045 -0.66064,0 -1.21618,-0.1351 -0.55554,-0.1352 -0.96093,-0.4204 -0.40539,-0.3003 -0.63061,-0.7808 -0.22522,-0.4805 -0.22522,-1.1561 0,-0.6456 0.25525,-1.1111 0.27026,-0.4654 0.7207,-0.7507 0.45043,-0.2853 1.05102,-0.4204 0.60058,-0.1352 1.26122,-0.1352 0.2102,0 0.43542,0.03 0.22522,0.015 0.42041,0.06 0.2102,0.03 0.36034,0.06 0.15015,0.03 0.21021,0.045 v -0.3903 q 0,-0.3454 -0.0751,-0.6757 -0.0751,-0.3453 -0.27026,-0.6006 -0.19519,-0.2702 -0.54052,-0.4204 -0.33032,-0.1651 -0.87084,-0.1651 -0.69067,0 -1.21618,0.1051 -0.51049,0.09 -0.76574,0.1951 l -0.16516,-1.1561 q 0.27026,-0.1201 0.90087,-0.2252 0.63061,-0.1201 1.36632,-0.1201 z"
           style="font-size:15.0145359px;line-height:1.25"
           id="path829" />
        <path
           d="m 215.79817,1235.0412 q 0.16516,0.075 0.42041,0.1352 0.27026,0.075 0.52551,0.075 0.8258,0 1.29125,-0.3754 0.46545,-0.3604 0.84081,-1.1862 -0.94592,-1.8017 -1.77172,-3.8137 -0.81078,-2.0269 -1.3513,-4.0989 h 1.50145 q 0.16516,0.6756 0.39038,1.4564 0.24023,0.7807 0.52551,1.6065 0.28527,0.8258 0.61559,1.6516 0.33032,0.8258 0.69067,1.5916 0.57055,-1.5765 0.99096,-3.123 0.42041,-1.5465 0.79577,-3.1831 h 1.4414 q -0.54053,2.2071 -1.20117,4.2491 -0.66064,2.027 -1.42638,3.7987 -0.30029,0.6756 -0.63061,1.1561 -0.3153,0.4955 -0.70568,0.8108 -0.39038,0.3153 -0.88586,0.4654 -0.48046,0.1502 -1.09606,0.1502 -0.16516,0 -0.34533,-0.03 -0.18018,-0.015 -0.36035,-0.06 -0.16516,-0.03 -0.31531,-0.075 -0.13513,-0.045 -0.19519,-0.075 z"
           style="font-size:15.0145359px;line-height:1.25"
           id="path831" />
        <path
           d="m 226.80523,1232.5789 q 0.49548,0 0.87084,-0.015 0.39038,-0.03 0.64563,-0.09 v -2.3273 q -0.15015,-0.075 -0.49548,-0.1201 -0.33032,-0.06 -0.81079,-0.06 -0.3153,0 -0.67565,0.045 -0.34533,0.045 -0.64562,0.1952 -0.28528,0.1351 -0.48047,0.3903 -0.19519,0.2403 -0.19519,0.6457 0,0.7507 0.48047,1.051 0.48046,0.2853 1.30626,0.2853 z m -0.12012,-6.9968 q 0.84082,0 1.41137,0.2252 0.58557,0.2102 0.9309,0.6156 0.36035,0.3904 0.5105,0.9459 0.15014,0.5405 0.15014,1.2012 v 4.8797 q -0.18017,0.03 -0.51049,0.09 -0.31531,0.045 -0.7207,0.09 -0.40539,0.045 -0.88586,0.075 -0.46545,0.045 -0.9309,0.045 -0.66064,0 -1.21618,-0.1351 -0.55553,-0.1352 -0.96093,-0.4204 -0.40539,-0.3003 -0.63061,-0.7808 -0.22522,-0.4805 -0.22522,-1.1561 0,-0.6456 0.25525,-1.1111 0.27026,-0.4654 0.7207,-0.7507 0.45044,-0.2853 1.05102,-0.4204 0.60058,-0.1352 1.26122,-0.1352 0.2102,0 0.43542,0.03 0.22522,0.015 0.42041,0.06 0.2102,0.03 0.36035,0.06 0.15014,0.03 0.2102,0.045 v -0.3903 q 0,-0.3454 -0.0751,-0.6757 -0.0751,-0.3453 -0.27027,-0.6006 -0.19518,-0.2702 -0.54052,-0.4204 -0.33032,-0.1651 -0.87084,-0.1651 -0.69067,0 -1.21618,0.1051 -0.51049,0.09 -0.76574,0.1951 l -0.16516,-1.1561 q 0.27026,-0.1201 0.90087,-0.2252 0.63061,-0.1201 1.36632,-0.1201 z"
           style="font-size:15.0145359px;line-height:1.25"
           id="path833" />
        <path
           d="m 234.33479,1233.735 q -1.29125,-0.03 -1.83178,-0.5556 -0.54052,-0.5255 -0.54052,-1.6365 v -9.3691 l 1.39635,-0.2402 v 9.384 q 0,0.3454 0.0601,0.5706 0.0601,0.2252 0.19519,0.3603 0.13513,0.1352 0.36035,0.2102 0.22521,0.06 0.55553,0.1052 z"
           style="font-size:15.0145359px;line-height:1.25"
           id="path835" />
        <path
           d="m 238.74061,1232.5789 q 0.49548,0 0.87085,-0.015 0.39037,-0.03 0.64562,-0.09 v -2.3273 q -0.15014,-0.075 -0.49548,-0.1201 -0.33032,-0.06 -0.81078,-0.06 -0.31531,0 -0.67566,0.045 -0.34533,0.045 -0.64562,0.1952 -0.28528,0.1351 -0.48047,0.3903 -0.19519,0.2403 -0.19519,0.6457 0,0.7507 0.48047,1.051 0.48046,0.2853 1.30626,0.2853 z m -0.12011,-6.9968 q 0.84081,0 1.41136,0.2252 0.58557,0.2102 0.93091,0.6156 0.36034,0.3904 0.51049,0.9459 0.15014,0.5405 0.15014,1.2012 v 4.8797 q -0.18017,0.03 -0.51049,0.09 -0.3153,0.045 -0.7207,0.09 -0.40539,0.045 -0.88585,0.075 -0.46546,0.045 -0.93091,0.045 -0.66064,0 -1.21617,-0.1351 -0.55554,-0.1352 -0.96093,-0.4204 -0.4054,-0.3003 -0.63061,-0.7808 -0.22522,-0.4805 -0.22522,-1.1561 0,-0.6456 0.25524,-1.1111 0.27027,-0.4654 0.7207,-0.7507 0.45044,-0.2853 1.05102,-0.4204 0.60058,-0.1352 1.26122,-0.1352 0.2102,0 0.43542,0.03 0.22522,0.015 0.42041,0.06 0.2102,0.03 0.36035,0.06 0.15014,0.03 0.2102,0.045 v -0.3903 q 0,-0.3454 -0.0751,-0.6757 -0.0751,-0.3453 -0.27026,-0.6006 -0.19519,-0.2702 -0.54053,-0.4204 -0.33032,-0.1651 -0.87084,-0.1651 -0.69067,0 -1.21618,0.1051 -0.51049,0.09 -0.76574,0.1951 l -0.16516,-1.1561 q 0.27026,-0.1201 0.90087,-0.2252 0.63062,-0.1201 1.36633,-0.1201 z"
           style="font-size:15.0145359px;line-height:1.25"
           id="path837" />
        <path
           d="m 252.47821,1230.2366 q 0,0.7507 -0.16516,1.3963 -0.15014,0.6457 -0.55553,1.1412 -0.39038,0.4804 -1.06604,0.7657 -0.66064,0.2703 -1.66661,0.2703 -0.51049,0 -0.94592,-0.09 -0.4204,-0.075 -0.76574,-0.1952 -0.34533,-0.1352 -0.60058,-0.2703 -0.25525,-0.1501 -0.40539,-0.2853 l 0.57055,-1.1561 q 0.31531,0.2252 0.81079,0.4805 0.51049,0.2402 1.26122,0.2402 1.08104,0 1.57652,-0.5405 0.49548,-0.5555 0.49548,-1.8918 v -6.9217 h 1.45641 z"
           style="font-size:15.0145359px;line-height:1.25"
           id="path839" />
        <path
           d="m 257.53811,1232.5789 q 0.49548,0 0.87084,-0.015 0.39038,-0.03 0.64563,-0.09 v -2.3273 q -0.15015,-0.075 -0.49548,-0.1201 -0.33032,-0.06 -0.81079,-0.06 -0.3153,0 -0.67565,0.045 -0.34533,0.045 -0.64563,0.1952 -0.28527,0.1351 -0.48046,0.3903 -0.19519,0.2403 -0.19519,0.6457 0,0.7507 0.48047,1.051 0.48046,0.2853 1.30626,0.2853 z m -0.12012,-6.9968 q 0.84082,0 1.41137,0.2252 0.58557,0.2102 0.9309,0.6156 0.36035,0.3904 0.5105,0.9459 0.15014,0.5405 0.15014,1.2012 v 4.8797 q -0.18017,0.03 -0.51049,0.09 -0.31531,0.045 -0.7207,0.09 -0.40539,0.045 -0.88586,0.075 -0.46545,0.045 -0.9309,0.045 -0.66064,0 -1.21618,-0.1351 -0.55553,-0.1352 -0.96093,-0.4204 -0.40539,-0.3003 -0.63061,-0.7808 -0.22522,-0.4805 -0.22522,-1.1561 0,-0.6456 0.25525,-1.1111 0.27026,-0.4654 0.7207,-0.7507 0.45044,-0.2853 1.05102,-0.4204 0.60058,-0.1352 1.26122,-0.1352 0.2102,0 0.43542,0.03 0.22522,0.015 0.42041,0.06 0.2102,0.03 0.36035,0.06 0.15014,0.03 0.2102,0.045 v -0.3903 q 0,-0.3454 -0.0751,-0.6757 -0.0751,-0.3453 -0.27027,-0.6006 -0.19518,-0.2702 -0.54052,-0.4204 -0.33032,-0.1651 -0.87084,-0.1651 -0.69067,0 -1.21618,0.1051 -0.51049,0.09 -0.76574,0.1951 l -0.16516,-1.1561 q 0.27026,-0.1201 0.90087,-0.2252 0.63061,-0.1201 1.36632,-0.1201 z"
           style="font-size:15.0145359px;line-height:1.25"
           id="path841" />
        <path
           d="m 265.36795,1232.5789 q 0.49548,0 0.87085,-0.015 0.39037,-0.03 0.64562,-0.09 v -2.3273 q -0.15015,-0.075 -0.49548,-0.1201 -0.33032,-0.06 -0.81078,-0.06 -0.31531,0 -0.67566,0.045 -0.34533,0.045 -0.64562,0.1952 -0.28528,0.1351 -0.48047,0.3903 -0.19519,0.2403 -0.19519,0.6457 0,0.7507 0.48047,1.051 0.48046,0.2853 1.30626,0.2853 z m -0.12011,-6.9968 q 0.84081,0 1.41136,0.2252 0.58557,0.2102 0.9309,0.6156 0.36035,0.3904 0.5105,0.9459 0.15014,0.5405 0.15014,1.2012 v 4.8797 q -0.18017,0.03 -0.51049,0.09 -0.31531,0.045 -0.7207,0.09 -0.40539,0.045 -0.88586,0.075 -0.46545,0.045 -0.9309,0.045 -0.66064,0 -1.21618,-0.1351 -0.55553,-0.1352 -0.96093,-0.4204 -0.40539,-0.3003 -0.63061,-0.7808 -0.22521,-0.4805 -0.22521,-1.1561 0,-0.6456 0.25524,-1.1111 0.27026,-0.4654 0.7207,-0.7507 0.45044,-0.2853 1.05102,-0.4204 0.60058,-0.1352 1.26122,-0.1352 0.2102,0 0.43542,0.03 0.22522,0.015 0.42041,0.06 0.2102,0.03 0.36035,0.06 0.15014,0.03 0.2102,0.045 v -0.3903 q 0,-0.3454 -0.0751,-0.6757 -0.0751,-0.3453 -0.27026,-0.6006 -0.19519,-0.2702 -0.54053,-0.4204 -0.33032,-0.1651 -0.87084,-0.1651 -0.69067,0 -1.21618,0.1051 -0.51049,0.09 -0.76574,0.1951 l -0.16516,-1.1561 q 0.27026,-0.1201 0.90087,-0.2252 0.63061,-0.1201 1.36633,-0.1201 z"
           style="font-size:15.0145359px;line-height:1.25"
           id="path843" />
        <path
           d="m 272.89751,1233.735 q -1.29125,-0.03 -1.83177,-0.5556 -0.54053,-0.5255 -0.54053,-1.6365 v -9.3691 l 1.39636,-0.2402 v 9.384 q 0,0.3454 0.0601,0.5706 0.0601,0.2252 0.19519,0.3603 0.13513,0.1352 0.36035,0.2102 0.22522,0.06 0.55554,0.1052 z"
           style="font-size:15.0145359px;line-height:1.25"
           id="path845" />
        <path
           d="m 277.30334,1232.5789 q 0.49548,0 0.87084,-0.015 0.39038,-0.03 0.64563,-0.09 v -2.3273 q -0.15015,-0.075 -0.49548,-0.1201 -0.33032,-0.06 -0.81079,-0.06 -0.3153,0 -0.67565,0.045 -0.34534,0.045 -0.64563,0.1952 -0.28527,0.1351 -0.48046,0.3903 -0.19519,0.2403 -0.19519,0.6457 0,0.7507 0.48046,1.051 0.48047,0.2853 1.30627,0.2853 z m -0.12012,-6.9968 q 0.84082,0 1.41137,0.2252 0.58557,0.2102 0.9309,0.6156 0.36035,0.3904 0.51049,0.9459 0.15015,0.5405 0.15015,1.2012 v 4.8797 q -0.18017,0.03 -0.51049,0.09 -0.31531,0.045 -0.7207,0.09 -0.40539,0.045 -0.88586,0.075 -0.46545,0.045 -0.9309,0.045 -0.66064,0 -1.21618,-0.1351 -0.55554,-0.1352 -0.96093,-0.4204 -0.40539,-0.3003 -0.63061,-0.7808 -0.22522,-0.4805 -0.22522,-1.1561 0,-0.6456 0.25525,-1.1111 0.27026,-0.4654 0.7207,-0.7507 0.45043,-0.2853 1.05102,-0.4204 0.60058,-0.1352 1.26122,-0.1352 0.2102,0 0.43542,0.03 0.22522,0.015 0.4204,0.06 0.21021,0.03 0.36035,0.06 0.15015,0.03 0.21021,0.045 v -0.3903 q 0,-0.3454 -0.0751,-0.6757 -0.0751,-0.3453 -0.27026,-0.6006 -0.19519,-0.2702 -0.54052,-0.4204 -0.33032,-0.1651 -0.87084,-0.1651 -0.69067,0 -1.21618,0.1051 -0.5105,0.09 -0.76574,0.1951 l -0.16516,-1.1561 q 0.27026,-0.1201 0.90087,-0.2252 0.63061,-0.1201 1.36632,-0.1201 z"
           style="font-size:15.0145359px;line-height:1.25"
           id="path847" />
        <path
           d="m 285.31336,1229.2907 q 0.45044,0.3453 0.94592,0.8558 0.51049,0.5105 0.99096,1.1111 0.49548,0.5856 0.9309,1.2011 0.43542,0.6006 0.73571,1.1261 h -1.63658 q -0.31531,-0.5255 -0.73572,-1.066 -0.40539,-0.5555 -0.85582,-1.051 -0.45044,-0.5105 -0.91589,-0.9309 -0.46545,-0.4204 -0.88586,-0.7057 v 3.7536 h -1.39635 v -11.411 l 1.39635,-0.2402 v 7.1168 q 0.36035,-0.3603 0.79577,-0.7957 0.43542,-0.4354 0.85583,-0.8859 0.42041,-0.4504 0.79577,-0.8558 0.37536,-0.4204 0.64563,-0.7357 h 1.63658 q -0.34533,0.3753 -0.75073,0.8258 -0.40539,0.4504 -0.84081,0.9159 -0.43542,0.4504 -0.88586,0.9159 -0.43542,0.4504 -0.8258,0.8558 z"
           style="font-size:15.0145359px;line-height:1.25"
           id="path849" />
        <path
           d="m 292.96303,1232.5789 q 0.49548,0 0.87084,-0.015 0.39038,-0.03 0.64563,-0.09 v -2.3273 q -0.15015,-0.075 -0.49548,-0.1201 -0.33032,-0.06 -0.81079,-0.06 -0.3153,0 -0.67565,0.045 -0.34534,0.045 -0.64563,0.1952 -0.28527,0.1351 -0.48046,0.3903 -0.19519,0.2403 -0.19519,0.6457 0,0.7507 0.48047,1.051 0.48046,0.2853 1.30626,0.2853 z m -0.12012,-6.9968 q 0.84082,0 1.41137,0.2252 0.58557,0.2102 0.9309,0.6156 0.36035,0.3904 0.5105,0.9459 0.15014,0.5405 0.15014,1.2012 v 4.8797 q -0.18017,0.03 -0.51049,0.09 -0.31531,0.045 -0.7207,0.09 -0.40539,0.045 -0.88586,0.075 -0.46545,0.045 -0.9309,0.045 -0.66064,0 -1.21618,-0.1351 -0.55554,-0.1352 -0.96093,-0.4204 -0.40539,-0.3003 -0.63061,-0.7808 -0.22522,-0.4805 -0.22522,-1.1561 0,-0.6456 0.25525,-1.1111 0.27026,-0.4654 0.7207,-0.7507 0.45043,-0.2853 1.05102,-0.4204 0.60058,-0.1352 1.26122,-0.1352 0.2102,0 0.43542,0.03 0.22522,0.015 0.42041,0.06 0.2102,0.03 0.36034,0.06 0.15015,0.03 0.21021,0.045 v -0.3903 q 0,-0.3454 -0.0751,-0.6757 -0.0751,-0.3453 -0.27027,-0.6006 -0.19519,-0.2702 -0.54052,-0.4204 -0.33032,-0.1651 -0.87084,-0.1651 -0.69067,0 -1.21618,0.1051 -0.51049,0.09 -0.76574,0.1951 l -0.16516,-1.1561 q 0.27026,-0.1201 0.90087,-0.2252 0.63061,-0.1201 1.36632,-0.1201 z"
           style="font-size:15.0145359px;line-height:1.25"
           id="path851" />
        <path
           d="m 298.15032,1226.0025 q 0.48047,-0.1201 1.26122,-0.2552 0.79577,-0.1352 1.83177,-0.1352 0.75073,0 1.26123,0.2102 0.51049,0.1952 0.85582,0.5856 0.10511,-0.075 0.33032,-0.2102 0.22522,-0.1351 0.55554,-0.2553 0.33032,-0.1351 0.73571,-0.2252 0.4054,-0.1051 0.87085,-0.1051 0.90087,0 1.47142,0.2703 0.57055,0.2552 0.88586,0.7357 0.33032,0.4805 0.43542,1.1411 0.12012,0.6606 0.12012,1.4414 v 4.3842 h -1.39635 v -4.0839 q 0,-0.6907 -0.0751,-1.1862 -0.0601,-0.4954 -0.25524,-0.8258 -0.18018,-0.3303 -0.5105,-0.4804 -0.3153,-0.1652 -0.8258,-0.1652 -0.70568,0 -1.17113,0.1952 -0.45044,0.1802 -0.6156,0.3303 0.12012,0.3904 0.18018,0.8558 0.0601,0.4655 0.0601,0.976 v 4.3842 h -1.39635 v -4.0839 q 0,-0.6907 -0.0751,-1.1862 -0.0751,-0.4954 -0.27026,-0.8258 -0.18018,-0.3303 -0.5105,-0.4804 -0.3153,-0.1652 -0.81078,-0.1652 -0.2102,0 -0.45044,0.015 -0.24023,0.015 -0.46545,0.045 -0.2102,0.015 -0.39037,0.045 -0.18018,0.03 -0.24024,0.045 v 6.5913 h -1.39635 z"
           style="font-size:15.0145359px;line-height:1.25"
           id="path853" />
        <path
           d="m 323.04137,1223.1798 q -0.57055,1.6516 -1.09606,3.0629 -0.5105,1.3964 -1.00597,2.6576 -0.49548,1.2612 -0.99096,2.4173 -0.48047,1.1411 -0.99096,2.2672 h -1.36633 q -0.51049,-1.1261 -1.00597,-2.2672 -0.48047,-1.1561 -0.99096,-2.4173 -0.49548,-1.2612 -1.02099,-2.6576 -0.52551,-1.4113 -1.08104,-3.0629 h 1.60655 q 0.81079,2.3723 1.59154,4.5644 0.78076,2.1921 1.60656,4.114 0.8258,-1.9069 1.60655,-4.099 0.78076,-2.2071 1.57653,-4.5794 z"
           style="font-size:15.0145359px;line-height:1.25"
           id="path855" />
        <path
           d="m 333.66744,1225.8373 q 0,0.5406 -0.22521,1.0511 -0.21021,0.4954 -0.57056,0.9909 -0.36035,0.4805 -0.81078,0.9609 -0.45044,0.4655 -0.90087,0.9159 -0.25525,0.2553 -0.60059,0.6006 -0.33032,0.3453 -0.63061,0.7207 -0.30029,0.3754 -0.51049,0.7207 -0.19519,0.3453 -0.19519,0.6006 h 4.78964 v 1.1861 h -6.30611 q -0.015,-0.09 -0.015,-0.1801 0,-0.09 0,-0.1652 0,-0.7057 0.22522,-1.3063 0.24023,-0.6156 0.61559,-1.1561 0.37537,-0.5405 0.84082,-1.021 0.46545,-0.4804 0.91588,-0.9309 0.37537,-0.3603 0.70569,-0.7057 0.34533,-0.3603 0.60058,-0.7056 0.27026,-0.3604 0.4204,-0.7357 0.16516,-0.3754 0.16516,-0.7958 0,-0.4505 -0.15014,-0.7658 -0.13513,-0.3153 -0.37536,-0.5255 -0.24024,-0.2102 -0.57056,-0.3003 -0.3153,-0.1051 -0.67565,-0.1051 -0.43542,0 -0.79577,0.1202 -0.36035,0.1201 -0.64563,0.2852 -0.28527,0.1502 -0.48046,0.3304 -0.19519,0.1651 -0.30029,0.2552 l -0.69067,-0.991 q 0.13513,-0.1501 0.40539,-0.3603 0.27026,-0.2252 0.64563,-0.4204 0.37536,-0.1952 0.84081,-0.3303 0.46545,-0.1352 1.00597,-0.1352 1.63659,0 2.44737,0.7658 0.8258,0.7507 0.8258,2.132 z"
           style="font-size:15.0145359px;line-height:1.25"
           id="path857" />
        <path
           d="m 337.98341,1232.7741 q 0,0.4053 -0.27026,0.7056 -0.27027,0.3003 -0.73572,0.3003 -0.46545,0 -0.73571,-0.3003 -0.27026,-0.3003 -0.27026,-0.7056 0,-0.4054 0.27026,-0.7057 0.27026,-0.3003 0.73571,-0.3003 0.46545,0 0.73572,0.3003 0.27026,0.3003 0.27026,0.7057 z"
           style="font-size:15.0145359px;line-height:1.25"
           id="path859" />
        <path
           d="m 339.57636,1228.3748 q 0,-2.6125 0.91589,-4.0239 0.9309,-1.4114 2.56749,-1.4114 1.63658,0 2.55247,1.4114 0.9309,1.4114 0.9309,4.0239 0,2.6125 -0.9309,4.0239 -0.91589,1.4114 -2.55247,1.4114 -1.63659,0 -2.56749,-1.4114 -0.91589,-1.4114 -0.91589,-4.0239 z m 5.49532,0 q 0,-0.8558 -0.1051,-1.6216 -0.0901,-0.7657 -0.33032,-1.3363 -0.22521,-0.5705 -0.61559,-0.9008 -0.39038,-0.3454 -0.96093,-0.3454 -0.57056,0 -0.96093,0.3454 -0.39038,0.3303 -0.63061,0.9008 -0.22522,0.5706 -0.33032,1.3363 -0.0901,0.7658 -0.0901,1.6216 0,0.8558 0.0901,1.6216 0.1051,0.7657 0.33032,1.3363 0.24023,0.5705 0.63061,0.9158 0.39037,0.3304 0.96093,0.3304 0.57055,0 0.96093,-0.3304 0.39038,-0.3453 0.61559,-0.9158 0.24024,-0.5706 0.33032,-1.3363 0.1051,-0.7658 0.1051,-1.6216 z"
           style="font-size:15.0145359px;line-height:1.25"
           id="path861" />
        <path
           d="m 350.15339,1232.7741 q 0,0.4053 -0.27026,0.7056 -0.27026,0.3003 -0.73571,0.3003 -0.46545,0 -0.73572,-0.3003 -0.27026,-0.3003 -0.27026,-0.7056 0,-0.4054 0.27026,-0.7057 0.27027,-0.3003 0.73572,-0.3003 0.46545,0 0.73571,0.3003 0.27026,0.3003 0.27026,0.7057 z"
           style="font-size:15.0145359px;line-height:1.25"
           id="path863" />
        <path
           d="m 351.74635,1228.3748 q 0,-2.6125 0.91588,-4.0239 0.93091,-1.4114 2.56749,-1.4114 1.63658,0 2.55247,1.4114 0.9309,1.4114 0.9309,4.0239 0,2.6125 -0.9309,4.0239 -0.91589,1.4114 -2.55247,1.4114 -1.63658,0 -2.56749,-1.4114 -0.91588,-1.4114 -0.91588,-4.0239 z m 5.49532,0 q 0,-0.8558 -0.1051,-1.6216 -0.0901,-0.7657 -0.33032,-1.3363 -0.22522,-0.5705 -0.6156,-0.9008 -0.39038,-0.3454 -0.96093,-0.3454 -0.57055,0 -0.96093,0.3454 -0.39038,0.3303 -0.63061,0.9008 -0.22522,0.5706 -0.33032,1.3363 -0.0901,0.7658 -0.0901,1.6216 0,0.8558 0.0901,1.6216 0.1051,0.7657 0.33032,1.3363 0.24023,0.5705 0.63061,0.9158 0.39038,0.3304 0.96093,0.3304 0.57055,0 0.96093,-0.3304 0.39038,-0.3453 0.6156,-0.9158 0.24023,-0.5706 0.33032,-1.3363 0.1051,-0.7658 0.1051,-1.6216 z"
           style="font-size:15.0145359px;line-height:1.25"
           id="path865" />
      </g>
      <rect
         style="fill:#55250b;fill-opacity:1;stroke:none;stroke-width:4;stroke-linejoin:miter;stroke-miterlimit:6.19999981;stroke-dasharray:none;stroke-opacity:1"
         id="rect5045"
         width="242.70966"
         height="0.5972175"
         x="180.26791"
         y="1292.1454"
         inkscape:export-filename="/home/shibi/Abooy/Blender/NewIcon"
         inkscape:export-xdpi="97.318993"
         inkscape:export-ydpi="97.318993" />
      <g
         aria-label="Easy Malayalam Typing Developer: ameenvengara@gmail.com"
         style="font-style:normal;font-variant:normal;font-weight:normal;font-stretch:normal;line-height:0%;font-family:Ubuntu;-inkscape-font-specification:'Ubuntu, Normal';text-align:start;letter-spacing:0px;word-spacing:0px;writing-mode:lr-tb;text-anchor:start;fill:#4d4d4d;fill-opacity:1;stroke:none;stroke-width:1px;stroke-linecap:butt;stroke-linejoin:miter;stroke-opacity:1"
         id="text5047">
        <path
           d="m 180.22521,1305.6908 v -6.7465 h 4.118 v 0.808 h -3.17368 v 2.0055 h 2.82321 v 0.7885 h -2.82321 v 2.3365 h 3.41706 v 0.808 z"
           style="font-size:9.73520756px;line-height:1.25"
           id="path868" />
        <path
           d="m 187.43231,1305.0385 q 0.32126,0 0.56464,-0.01 0.25312,-0.02 0.41861,-0.058 v -1.509 q -0.0974,-0.049 -0.32126,-0.078 -0.21417,-0.039 -0.5257,-0.039 -0.20444,0 -0.43808,0.029 -0.22391,0.029 -0.41862,0.1266 -0.18497,0.088 -0.31152,0.2531 -0.12656,0.1558 -0.12656,0.4186 0,0.4868 0.31153,0.6815 0.31152,0.1849 0.84696,0.1849 z m -0.0779,-4.5366 q 0.54517,0 0.91511,0.1461 0.37967,0.1363 0.60358,0.3991 0.23364,0.2531 0.331,0.6133 0.0974,0.3505 0.0974,0.7788 v 3.164 q -0.11682,0.019 -0.331,0.058 -0.20444,0.029 -0.46729,0.058 -0.26285,0.029 -0.57438,0.049 -0.30179,0.029 -0.60358,0.029 -0.42835,0 -0.78855,-0.088 -0.3602,-0.088 -0.62305,-0.2726 -0.26285,-0.1947 -0.40888,-0.5063 -0.14603,-0.3115 -0.14603,-0.7496 0,-0.4186 0.1655,-0.7204 0.17523,-0.3018 0.46729,-0.4867 0.29205,-0.185 0.68146,-0.2726 0.38941,-0.088 0.81776,-0.088 0.13629,0 0.28232,0.019 0.14603,0.01 0.27259,0.039 0.13629,0.019 0.23364,0.039 0.0974,0.019 0.13629,0.029 v -0.2531 q 0,-0.2239 -0.0487,-0.4381 -0.0487,-0.2239 -0.17523,-0.3894 -0.12656,-0.1752 -0.35047,-0.2726 -0.21418,-0.1071 -0.56464,-0.1071 -0.44782,0 -0.78856,0.068 -0.33099,0.058 -0.49649,0.1266 l -0.10709,-0.7497 q 0.17523,-0.078 0.58411,-0.146 0.40888,-0.078 0.88591,-0.078 z"
           style="font-size:9.73520756px;line-height:1.25"
           id="path870" />
        <path
           d="m 191.97363,1305.0385 q 0.55491,0 0.81776,-0.146 0.27259,-0.146 0.27259,-0.4673 0,-0.331 -0.26286,-0.5257 -0.26285,-0.1947 -0.86643,-0.4381 -0.29206,-0.1168 -0.56464,-0.2336 -0.26285,-0.1266 -0.45756,-0.2921 -0.1947,-0.1655 -0.31152,-0.3991 -0.11682,-0.2337 -0.11682,-0.5744 0,-0.6717 0.49649,-1.0611 0.4965,-0.3992 1.35319,-0.3992 0.21418,0 0.42835,0.029 0.21418,0.02 0.39915,0.058 0.18497,0.029 0.32126,0.068 0.14603,0.039 0.22391,0.068 l -0.1655,0.7789 q -0.14603,-0.078 -0.45755,-0.1558 -0.31153,-0.088 -0.74962,-0.088 -0.37967,0 -0.66199,0.1557 -0.28232,0.1461 -0.28232,0.4673 0,0.1655 0.0584,0.2921 0.0681,0.1265 0.1947,0.2336 0.1363,0.097 0.331,0.185 0.19471,0.088 0.46729,0.185 0.3602,0.1363 0.64253,0.2726 0.28232,0.1265 0.47702,0.3017 0.20444,0.1753 0.31153,0.4284 0.10708,0.2434 0.10708,0.6036 0,0.7009 -0.5257,1.0611 -0.51596,0.3602 -1.47975,0.3602 -0.67173,0 -1.0514,-0.1168 -0.37967,-0.1071 -0.51597,-0.1655 l 0.1655,-0.7788 q 0.15577,0.058 0.4965,0.1752 0.34073,0.1168 0.90537,0.1168 z"
           style="font-size:9.73520756px;line-height:1.25"
           id="path872" />
        <path
           d="m 194.53703,1306.6351 q 0.10709,0.049 0.27259,0.088 0.17523,0.049 0.34073,0.049 0.53544,0 0.83723,-0.2434 0.30179,-0.2336 0.54517,-0.7691 -0.61332,-1.1682 -1.14875,-2.4727 -0.52571,-1.3143 -0.87617,-2.6577 h 0.97352 q 0.10709,0.4381 0.25311,0.9443 0.15577,0.5062 0.34074,1.0417 0.18496,0.5354 0.39914,1.0708 0.21417,0.5355 0.44782,1.032 0.36994,-1.0222 0.64252,-2.0249 0.27259,-1.0028 0.51597,-2.0639 h 0.93458 q -0.35047,1.4311 -0.77882,2.7551 -0.42835,1.3142 -0.92484,2.463 -0.19471,0.438 -0.40888,0.7496 -0.20444,0.3212 -0.45756,0.5257 -0.25311,0.2044 -0.57437,0.3018 -0.31153,0.097 -0.71067,0.097 -0.10709,0 -0.22391,-0.019 -0.11683,-0.01 -0.23365,-0.039 -0.10709,-0.02 -0.20444,-0.049 -0.0876,-0.029 -0.12656,-0.049 z"
           style="font-size:9.73520756px;line-height:1.25"
           id="path874" />
        <path
           d="m 205.29018,1304.7562 q -0.0974,-0.2336 -0.26285,-0.5938 -0.15577,-0.3602 -0.34073,-0.7788 -0.18497,-0.4187 -0.39915,-0.8567 -0.20444,-0.4479 -0.38941,-0.8373 -0.18497,-0.3991 -0.35046,-0.7106 -0.15577,-0.3116 -0.25312,-0.4771 -0.10709,1.1488 -0.17523,2.4922 -0.0681,1.3338 -0.11683,2.6967 h -0.92484 q 0.0389,-0.8762 0.0876,-1.7621 0.0487,-0.8956 0.10708,-1.7523 0.0682,-0.8664 0.1363,-1.6842 0.0779,-0.8178 0.1655,-1.5479 h 0.82749 q 0.26285,0.4283 0.56464,1.0125 0.30179,0.5841 0.60358,1.2266 0.30179,0.6328 0.58412,1.2753 0.28232,0.6328 0.51596,1.1585 0.23365,-0.5257 0.51597,-1.1585 0.28232,-0.6425 0.58411,-1.2753 0.30179,-0.6425 0.60358,-1.2266 0.30179,-0.5842 0.56464,-1.0125 h 0.8275 q 0.33099,3.2613 0.49649,6.7465 h -0.92484 q -0.0487,-1.3629 -0.11682,-2.6967 -0.0682,-1.3434 -0.17524,-2.4922 -0.0974,0.1655 -0.26285,0.4771 -0.15576,0.3115 -0.34073,0.7106 -0.18497,0.3894 -0.39914,0.8373 -0.20444,0.438 -0.38941,0.8567 -0.18497,0.4186 -0.35047,0.7788 -0.15576,0.3602 -0.25312,0.5938 z"
           style="font-size:9.73520756px;line-height:1.25"
           id="path876" />
        <path
           d="m 212.39779,1305.0385 q 0.32126,0 0.56464,-0.01 0.25312,-0.02 0.41862,-0.058 v -1.509 q -0.0973,-0.049 -0.32126,-0.078 -0.21418,-0.039 -0.52571,-0.039 -0.20443,0 -0.43808,0.029 -0.22391,0.029 -0.41861,0.1266 -0.18497,0.088 -0.31153,0.2531 -0.12656,0.1558 -0.12656,0.4186 0,0.4868 0.31153,0.6815 0.31153,0.1849 0.84696,0.1849 z m -0.0779,-4.5366 q 0.54517,0 0.91511,0.1461 0.37967,0.1363 0.60358,0.3991 0.23365,0.2531 0.331,0.6133 0.0974,0.3505 0.0974,0.7788 v 3.164 q -0.11682,0.019 -0.331,0.058 -0.20443,0.029 -0.46729,0.058 -0.26285,0.029 -0.57437,0.049 -0.30179,0.029 -0.60359,0.029 -0.42834,0 -0.78855,-0.088 -0.3602,-0.088 -0.62305,-0.2726 -0.26285,-0.1947 -0.40888,-0.5063 -0.14603,-0.3115 -0.14603,-0.7496 0,-0.4186 0.1655,-0.7204 0.17523,-0.3018 0.46729,-0.4867 0.29206,-0.185 0.68147,-0.2726 0.3894,-0.088 0.81775,-0.088 0.1363,0 0.28232,0.019 0.14603,0.01 0.27259,0.039 0.13629,0.019 0.23364,0.039 0.0974,0.019 0.1363,0.029 v -0.2531 q 0,-0.2239 -0.0487,-0.4381 -0.0487,-0.2239 -0.17523,-0.3894 -0.12656,-0.1752 -0.35047,-0.2726 -0.21417,-0.1071 -0.56464,-0.1071 -0.44782,0 -0.78855,0.068 -0.331,0.058 -0.4965,0.1266 l -0.10709,-0.7497 q 0.17524,-0.078 0.58412,-0.146 0.40887,-0.078 0.8859,-0.078 z"
           style="font-size:9.73520756px;line-height:1.25"
           id="path878" />
        <path
           d="m 217.27985,1305.7881 q -0.83723,-0.019 -1.1877,-0.3602 -0.35047,-0.3407 -0.35047,-1.0611 v -6.0748 l 0.90538,-0.1557 v 6.0845 q 0,0.2239 0.0389,0.3699 0.0389,0.146 0.12656,0.2337 0.0876,0.088 0.23364,0.1363 0.14603,0.039 0.3602,0.068 z"
           style="font-size:9.73520756px;line-height:1.25"
           id="path880" />
        <path
           d="m 220.13652,1305.0385 q 0.32126,0 0.56465,-0.01 0.25311,-0.02 0.41861,-0.058 v -1.509 q -0.0973,-0.049 -0.32126,-0.078 -0.21418,-0.039 -0.5257,-0.039 -0.20444,0 -0.43809,0.029 -0.22391,0.029 -0.41861,0.1266 -0.18497,0.088 -0.31153,0.2531 -0.12656,0.1558 -0.12656,0.4186 0,0.4868 0.31153,0.6815 0.31153,0.1849 0.84696,0.1849 z m -0.0779,-4.5366 q 0.54517,0 0.91511,0.1461 0.37967,0.1363 0.60358,0.3991 0.23365,0.2531 0.331,0.6133 0.0974,0.3505 0.0974,0.7788 v 3.164 q -0.11682,0.019 -0.33099,0.058 -0.20444,0.029 -0.46729,0.058 -0.26285,0.029 -0.57438,0.049 -0.30179,0.029 -0.60358,0.029 -0.42835,0 -0.78856,-0.088 -0.3602,-0.088 -0.62305,-0.2726 -0.26285,-0.1947 -0.40888,-0.5063 -0.14603,-0.3115 -0.14603,-0.7496 0,-0.4186 0.1655,-0.7204 0.17524,-0.3018 0.46729,-0.4867 0.29206,-0.185 0.68147,-0.2726 0.38941,-0.088 0.81775,-0.088 0.1363,0 0.28233,0.019 0.14602,0.01 0.27258,0.039 0.13629,0.019 0.23365,0.039 0.0974,0.019 0.13629,0.029 v -0.2531 q 0,-0.2239 -0.0487,-0.4381 -0.0487,-0.2239 -0.17523,-0.3894 -0.12656,-0.1752 -0.35047,-0.2726 -0.21417,-0.1071 -0.56464,-0.1071 -0.44782,0 -0.78855,0.068 -0.331,0.058 -0.4965,0.1266 l -0.10708,-0.7497 q 0.17523,-0.078 0.58411,-0.146 0.40888,-0.078 0.8859,-0.078 z"
           style="font-size:9.73520756px;line-height:1.25"
           id="path882" />
        <path
           d="m 222.75392,1306.6351 q 0.10709,0.049 0.27259,0.088 0.17523,0.049 0.34073,0.049 0.53544,0 0.83723,-0.2434 0.30179,-0.2336 0.54517,-0.7691 -0.61332,-1.1682 -1.14875,-2.4727 -0.5257,-1.3143 -0.87617,-2.6577 h 0.97352 q 0.10709,0.4381 0.25311,0.9443 0.15577,0.5062 0.34074,1.0417 0.18497,0.5354 0.39914,1.0708 0.21417,0.5355 0.44782,1.032 0.36994,-1.0222 0.64252,-2.0249 0.27259,-1.0028 0.51597,-2.0639 h 0.93458 q -0.35047,1.4311 -0.77882,2.7551 -0.42835,1.3142 -0.92484,2.463 -0.19471,0.438 -0.40888,0.7496 -0.20444,0.3212 -0.45756,0.5257 -0.25311,0.2044 -0.57437,0.3018 -0.31153,0.097 -0.71067,0.097 -0.10709,0 -0.22391,-0.019 -0.11683,-0.01 -0.23365,-0.039 -0.10709,-0.02 -0.20444,-0.049 -0.0876,-0.029 -0.12656,-0.049 z"
           style="font-size:9.73520756px;line-height:1.25"
           id="path884" />
        <path
           d="m 229.89074,1305.0385 q 0.32126,0 0.56464,-0.01 0.25312,-0.02 0.41862,-0.058 v -1.509 q -0.0974,-0.049 -0.32126,-0.078 -0.21418,-0.039 -0.5257,-0.039 -0.20444,0 -0.43809,0.029 -0.22391,0.029 -0.41861,0.1266 -0.18497,0.088 -0.31153,0.2531 -0.12656,0.1558 -0.12656,0.4186 0,0.4868 0.31153,0.6815 0.31153,0.1849 0.84696,0.1849 z m -0.0779,-4.5366 q 0.54517,0 0.91511,0.1461 0.37967,0.1363 0.60358,0.3991 0.23365,0.2531 0.331,0.6133 0.0973,0.3505 0.0973,0.7788 v 3.164 q -0.11682,0.019 -0.331,0.058 -0.20443,0.029 -0.46728,0.058 -0.26286,0.029 -0.57438,0.049 -0.30179,0.029 -0.60359,0.029 -0.42834,0 -0.78855,-0.088 -0.3602,-0.088 -0.62305,-0.2726 -0.26285,-0.1947 -0.40888,-0.5063 -0.14603,-0.3115 -0.14603,-0.7496 0,-0.4186 0.1655,-0.7204 0.17524,-0.3018 0.46729,-0.4867 0.29206,-0.185 0.68147,-0.2726 0.3894,-0.088 0.81775,-0.088 0.1363,0 0.28232,0.019 0.14603,0.01 0.27259,0.039 0.13629,0.019 0.23365,0.039 0.0974,0.019 0.13629,0.029 v -0.2531 q 0,-0.2239 -0.0487,-0.4381 -0.0487,-0.2239 -0.17523,-0.3894 -0.12656,-0.1752 -0.35047,-0.2726 -0.21417,-0.1071 -0.56464,-0.1071 -0.44782,0 -0.78855,0.068 -0.331,0.058 -0.4965,0.1266 l -0.10709,-0.7497 q 0.17524,-0.078 0.58412,-0.146 0.40888,-0.078 0.8859,-0.078 z"
           style="font-size:9.73520756px;line-height:1.25"
           id="path886" />
        <path
           d="m 234.7728,1305.7881 q -0.83723,-0.019 -1.1877,-0.3602 -0.35047,-0.3407 -0.35047,-1.0611 v -6.0748 l 0.90538,-0.1557 v 6.0845 q 0,0.2239 0.0389,0.3699 0.0389,0.146 0.12656,0.2337 0.0876,0.088 0.23364,0.1363 0.14603,0.039 0.36021,0.068 z"
           style="font-size:9.73520756px;line-height:1.25"
           id="path888" />
        <path
           d="m 237.62947,1305.0385 q 0.32127,0 0.56465,-0.01 0.25311,-0.02 0.41861,-0.058 v -1.509 q -0.0974,-0.049 -0.32126,-0.078 -0.21418,-0.039 -0.5257,-0.039 -0.20444,0 -0.43809,0.029 -0.22391,0.029 -0.41861,0.1266 -0.18497,0.088 -0.31153,0.2531 -0.12656,0.1558 -0.12656,0.4186 0,0.4868 0.31153,0.6815 0.31153,0.1849 0.84696,0.1849 z m -0.0779,-4.5366 q 0.54517,0 0.91511,0.1461 0.37967,0.1363 0.60358,0.3991 0.23365,0.2531 0.331,0.6133 0.0973,0.3505 0.0973,0.7788 v 3.164 q -0.11682,0.019 -0.33099,0.058 -0.20444,0.029 -0.46729,0.058 -0.26285,0.029 -0.57438,0.049 -0.30179,0.029 -0.60358,0.029 -0.42835,0 -0.78856,-0.088 -0.3602,-0.088 -0.62305,-0.2726 -0.26285,-0.1947 -0.40888,-0.5063 -0.14603,-0.3115 -0.14603,-0.7496 0,-0.4186 0.1655,-0.7204 0.17524,-0.3018 0.46729,-0.4867 0.29206,-0.185 0.68147,-0.2726 0.38941,-0.088 0.81775,-0.088 0.1363,0 0.28233,0.019 0.14602,0.01 0.27258,0.039 0.13629,0.019 0.23365,0.039 0.0974,0.019 0.13629,0.029 v -0.2531 q 0,-0.2239 -0.0487,-0.4381 -0.0487,-0.2239 -0.17523,-0.3894 -0.12656,-0.1752 -0.35047,-0.2726 -0.21417,-0.1071 -0.56464,-0.1071 -0.44782,0 -0.78855,0.068 -0.331,0.058 -0.4965,0.1266 l -0.10708,-0.7497 q 0.17523,-0.078 0.58411,-0.146 0.40888,-0.078 0.8859,-0.078 z"
           style="font-size:9.73520756px;line-height:1.25"
           id="path890" />
        <path
           d="m 240.99284,1300.7745 q 0.31152,-0.078 0.81775,-0.1655 0.51597,-0.088 1.1877,-0.088 0.48676,0 0.81776,0.1363 0.33099,0.1266 0.5549,0.3797 0.0682,-0.049 0.21418,-0.1363 0.14603,-0.088 0.3602,-0.1655 0.21418,-0.088 0.47703,-0.1461 0.26285,-0.068 0.56464,-0.068 0.58411,0 0.95405,0.1752 0.36994,0.1655 0.57438,0.4771 0.21417,0.3115 0.28232,0.7398 0.0779,0.4284 0.0779,0.9346 v 2.8427 h -0.90538 v -2.648 q 0,-0.4478 -0.0487,-0.7691 -0.0389,-0.3212 -0.1655,-0.5354 -0.11682,-0.2142 -0.331,-0.3115 -0.20444,-0.1071 -0.53543,-0.1071 -0.45756,0 -0.75935,0.1265 -0.29206,0.1169 -0.39914,0.2142 0.0779,0.2531 0.11682,0.5549 0.0389,0.3018 0.0389,0.6328 v 2.8427 h -0.90537 v -2.648 q 0,-0.4478 -0.0487,-0.7691 -0.0487,-0.3212 -0.17523,-0.5354 -0.11683,-0.2142 -0.331,-0.3115 -0.20444,-0.1071 -0.5257,-0.1071 -0.1363,0 -0.29206,0.01 -0.15576,0.01 -0.30179,0.029 -0.13629,0.01 -0.25312,0.029 -0.11682,0.02 -0.15576,0.029 v 4.2738 h -0.90537 z"
           style="font-size:9.73520756px;line-height:1.25"
           id="path892" />
        <path
           d="m 256.18752,1298.9443 v 0.8178 h -2.12228 v 5.9287 h -0.94431 v -5.9287 h -2.12228 v -0.8178 z"
           style="font-size:9.73520756px;line-height:1.25"
           id="path894" />
        <path
           d="m 256.31377,1306.6351 q 0.10709,0.049 0.27258,0.088 0.17524,0.049 0.34074,0.049 0.53543,0 0.83722,-0.2434 0.3018,-0.2336 0.54518,-0.7691 -0.61332,-1.1682 -1.14876,-2.4727 -0.5257,-1.3143 -0.87617,-2.6577 h 0.97352 q 0.10709,0.4381 0.25312,0.9443 0.15576,0.5062 0.34073,1.0417 0.18497,0.5354 0.39914,1.0708 0.21418,0.5355 0.44782,1.032 0.36994,-1.0222 0.64253,-2.0249 0.27258,-1.0028 0.51596,-2.0639 h 0.93458 q -0.35046,1.4311 -0.77881,2.7551 -0.42835,1.3142 -0.92485,2.463 -0.1947,0.438 -0.40888,0.7496 -0.20444,0.3212 -0.45755,0.5257 -0.25312,0.2044 -0.57438,0.3018 -0.31152,0.097 -0.71067,0.097 -0.10709,0 -0.22391,-0.019 -0.11682,-0.01 -0.23364,-0.039 -0.10709,-0.02 -0.20444,-0.049 -0.0876,-0.029 -0.12656,-0.049 z"
           style="font-size:9.73520756px;line-height:1.25"
           id="path896" />
        <path
           d="m 265.2516,1303.1694 q 0,-0.8859 -0.43808,-1.363 -0.43809,-0.477 -1.16823,-0.477 -0.40888,0 -0.64252,0.029 -0.22391,0.029 -0.36021,0.068 v 3.1931 q 0.1655,0.1363 0.47703,0.2629 0.31153,0.1265 0.68146,0.1265 0.38941,0 0.662,-0.1363 0.28232,-0.146 0.45755,-0.3894 0.17524,-0.2531 0.25312,-0.5841 0.0779,-0.3407 0.0779,-0.7301 z m 0.94432,0 q 0,0.5744 -0.15577,1.0611 -0.14603,0.4868 -0.43808,0.8372 -0.29206,0.3505 -0.72041,0.5452 -0.41861,0.1947 -0.96378,0.1947 -0.43809,0 -0.77882,-0.1168 -0.331,-0.1168 -0.4965,-0.2239 v 2.0249 h -0.90537 v -6.7075 q 0.32126,-0.078 0.79829,-0.1655 0.48676,-0.097 1.11955,-0.097 0.58411,0 1.0514,0.185 0.46729,0.1849 0.79829,0.5257 0.33099,0.3407 0.50623,0.8372 0.18497,0.4868 0.18497,1.1001 z"
           style="font-size:9.73520756px;line-height:1.25"
           id="path898" />
        <path
           d="m 268.38482,1305.6908 h -0.90537 v -5.0623 h 0.90537 z m -0.45755,-5.9774 q -0.24338,0 -0.41862,-0.1558 -0.1655,-0.1655 -0.1655,-0.4381 0,-0.2726 0.1655,-0.4283 0.17524,-0.1655 0.41862,-0.1655 0.24338,0 0.40888,0.1655 0.17523,0.1557 0.17523,0.4283 0,0.2726 -0.17523,0.4381 -0.1655,0.1558 -0.40888,0.1558 z"
           style="font-size:9.73520756px;line-height:1.25"
           id="path900" />
        <path
           d="m 269.95128,1300.7745 q 0.31153,-0.078 0.82749,-0.1655 0.51597,-0.088 1.1877,-0.088 0.60358,0 1.00272,0.1752 0.39915,0.1655 0.63279,0.4771 0.24338,0.3018 0.34073,0.7301 0.0974,0.4283 0.0974,0.9443 v 2.8427 h -0.90538 v -2.648 q 0,-0.4673 -0.0681,-0.7983 -0.0584,-0.331 -0.20444,-0.5354 -0.14603,-0.2044 -0.38941,-0.2921 -0.24338,-0.097 -0.60359,-0.097 -0.14602,0 -0.30179,0.01 -0.15576,0.01 -0.30179,0.029 -0.13629,0.01 -0.25311,0.029 -0.10709,0.02 -0.15577,0.029 v 4.2738 h -0.90537 z"
           style="font-size:9.73520756px;line-height:1.25"
           id="path902" />
        <path
           d="m 278.71509,1305.1846 q -0.11682,0.078 -0.45755,0.2044 -0.331,0.1168 -0.77882,0.1168 -0.45756,0 -0.86643,-0.146 -0.39915,-0.146 -0.70094,-0.4478 -0.30179,-0.3115 -0.47702,-0.7691 -0.17524,-0.4576 -0.17524,-1.0903 0,-0.555 0.1655,-1.0125 0.1655,-0.4673 0.47703,-0.7983 0.32126,-0.3407 0.77881,-0.5257 0.45756,-0.1947 1.03193,-0.1947 0.63279,0 1.10008,0.097 0.47703,0.088 0.79829,0.1655 v 4.5171 q 0,1.1682 -0.60358,1.6939 -0.60359,0.5257 -1.83022,0.5257 -0.47703,0 -0.90538,-0.078 -0.41861,-0.078 -0.73014,-0.1849 l 0.1655,-0.7886 q 0.27259,0.1071 0.662,0.185 0.39914,0.088 0.82749,0.088 0.80802,0 1.15849,-0.3213 0.3602,-0.3212 0.3602,-1.0222 z m -0.01,-3.7578 q -0.1363,-0.039 -0.36994,-0.068 -0.22391,-0.039 -0.61332,-0.039 -0.73014,0 -1.12928,0.477 -0.38941,0.477 -0.38941,1.2656 0,0.4381 0.10708,0.7496 0.11683,0.3115 0.3018,0.516 0.1947,0.2044 0.43808,0.3018 0.25312,0.097 0.51597,0.097 0.3602,0 0.66199,-0.097 0.30179,-0.1071 0.47703,-0.2434 z"
           style="font-size:9.73520756px;line-height:1.25"
           id="path904" />
        <path
           d="m 185.76455,1314.4817 q 0,0.8762 -0.27259,1.5284 -0.27259,0.6425 -0.76908,1.0709 -0.4965,0.4186 -1.1877,0.6328 -0.6912,0.2044 -1.51869,0.2044 -0.40888,0 -0.90537,-0.039 -0.48676,-0.029 -0.88591,-0.1266 v -6.542 q 0.39915,-0.097 0.88591,-0.1266 0.49649,-0.039 0.90537,-0.039 0.82749,0 1.51869,0.2141 0.6912,0.2045 1.1877,0.6328 0.49649,0.4186 0.76908,1.0709 0.27259,0.6425 0.27259,1.5187 z m -3.67018,2.609 q 1.34346,0 2.00546,-0.6814 0.66199,-0.6912 0.66199,-1.9276 0,-1.2364 -0.66199,-1.9178 -0.662,-0.6912 -2.00546,-0.6912 -0.39914,0 -0.62305,0.01 -0.21417,0.01 -0.30179,0.02 v 5.1596 q 0.0876,0.01 0.30179,0.019 0.22391,0.01 0.62305,0.01 z"
           style="font-size:9.73520756px;line-height:1.25"
           id="path906" />
        <path
           d="m 186.82462,1315.3384 q 0,-0.6717 0.1947,-1.1682 0.19471,-0.5063 0.51597,-0.8373 0.32126,-0.331 0.73988,-0.4965 0.41861,-0.1655 0.85669,-0.1655 1.0222,0 1.56737,0.6426 0.54517,0.6328 0.54517,1.9373 0,0.058 0,0.1557 0,0.088 -0.01,0.1655 h -3.46574 q 0.0584,0.7886 0.45756,1.1975 0.39914,0.4088 1.24611,0.4088 0.47702,0 0.79828,-0.078 0.331,-0.088 0.4965,-0.1655 l 0.12656,0.7593 q -0.1655,0.088 -0.58412,0.185 -0.40888,0.097 -0.93458,0.097 -0.66199,0 -1.14875,-0.1947 -0.47703,-0.2044 -0.78855,-0.5549 -0.31153,-0.3505 -0.46729,-0.8275 -0.14603,-0.4867 -0.14603,-1.0611 z m 3.47547,-0.4965 q 0.01,-0.6133 -0.31153,-1.0027 -0.31153,-0.3992 -0.86643,-0.3992 -0.31153,0 -0.55491,0.1266 -0.23364,0.1168 -0.39914,0.3115 -0.1655,0.1947 -0.26285,0.4478 -0.0876,0.2531 -0.11683,0.516 z"
           style="font-size:9.73520756px;line-height:1.25"
           id="path908" />
        <path
           d="m 196.49746,1312.7975 q -0.37967,1.4213 -0.89564,2.7259 -0.50623,1.3045 -0.98325,2.3364 h -0.81776 q -0.47703,-1.0319 -0.99299,-2.3364 -0.50623,-1.3046 -0.88591,-2.7259 h 0.97352 q 0.11683,0.477 0.27259,1.0222 0.1655,0.5354 0.34073,1.0709 0.18497,0.5257 0.36994,1.0222 0.18497,0.4965 0.35047,0.8859 0.1655,-0.3894 0.35046,-0.8859 0.18497,-0.4965 0.36021,-1.0222 0.18497,-0.5355 0.34073,-1.0709 0.1655,-0.5452 0.28232,-1.0222 z"
           style="font-size:9.73520756px;line-height:1.25"
           id="path910" />
        <path
           d="m 197.01616,1315.3384 q 0,-0.6717 0.19471,-1.1682 0.1947,-0.5063 0.51596,-0.8373 0.32127,-0.331 0.73988,-0.4965 0.41861,-0.1655 0.8567,-0.1655 1.0222,0 1.56737,0.6426 0.54517,0.6328 0.54517,1.9373 0,0.058 0,0.1557 0,0.088 -0.01,0.1655 h -3.46573 q 0.0584,0.7886 0.45755,1.1975 0.39915,0.4088 1.24611,0.4088 0.47703,0 0.79829,-0.078 0.33099,-0.088 0.49649,-0.1655 l 0.12656,0.7593 q -0.1655,0.088 -0.58411,0.185 -0.40888,0.097 -0.93458,0.097 -0.662,0 -1.14876,-0.1947 -0.47702,-0.2044 -0.78855,-0.5549 -0.31152,-0.3505 -0.46729,-0.8275 -0.14603,-0.4867 -0.14603,-1.0611 z m 3.47547,-0.4965 q 0.01,-0.6133 -0.31152,-1.0027 -0.31153,-0.3992 -0.86644,-0.3992 -0.31152,0 -0.5549,0.1266 -0.23365,0.1168 -0.39915,0.3115 -0.1655,0.1947 -0.26285,0.4478 -0.0876,0.2531 -0.11682,0.516 z"
           style="font-size:9.73520756px;line-height:1.25"
           id="path912" />
        <path
           d="m 204.2552,1317.9572 q -0.83722,-0.02 -1.18769,-0.3602 -0.35047,-0.3408 -0.35047,-1.0612 v -6.0748 l 0.90538,-0.1557 v 6.0845 q 0,0.2239 0.0389,0.3699 0.0389,0.1461 0.12655,0.2337 0.0876,0.088 0.23365,0.1363 0.14603,0.039 0.3602,0.068 z"
           style="font-size:9.73520756px;line-height:1.25"
           id="path914" />
        <path
           d="m 209.86694,1315.3287 q 0,0.6035 -0.17523,1.0903 -0.17524,0.4868 -0.4965,0.8372 -0.31152,0.3505 -0.74961,0.5452 -0.43808,0.185 -0.95405,0.185 -0.51596,0 -0.95405,-0.185 -0.43808,-0.1947 -0.75935,-0.5452 -0.31152,-0.3504 -0.48676,-0.8372 -0.17523,-0.4868 -0.17523,-1.0903 0,-0.5939 0.17523,-1.0807 0.17524,-0.4965 0.48676,-0.8469 0.32127,-0.3505 0.75935,-0.5355 0.43809,-0.1947 0.95405,-0.1947 0.51597,0 0.95405,0.1947 0.43809,0.185 0.74961,0.5355 0.32126,0.3504 0.4965,0.8469 0.17523,0.4868 0.17523,1.0807 z m -0.94431,0 q 0,-0.8567 -0.38941,-1.3532 -0.37967,-0.5063 -1.04167,-0.5063 -0.66199,0 -1.0514,0.5063 -0.37967,0.4965 -0.37967,1.3532 0,0.8566 0.37967,1.3629 0.38941,0.4965 1.0514,0.4965 0.662,0 1.04167,-0.4965 0.38941,-0.5063 0.38941,-1.3629 z"
           style="font-size:9.73520756px;line-height:1.25"
           id="path916" />
        <path
           d="m 214.65514,1315.3384 q 0,-0.8859 -0.43808,-1.3629 -0.43808,-0.4771 -1.16823,-0.4771 -0.40887,0 -0.64252,0.029 -0.22391,0.029 -0.3602,0.068 v 3.1931 q 0.1655,0.1363 0.47702,0.2629 0.31153,0.1265 0.68147,0.1265 0.38941,0 0.66199,-0.1363 0.28232,-0.146 0.45756,-0.3894 0.17523,-0.2531 0.25311,-0.5841 0.0779,-0.3407 0.0779,-0.7301 z m 0.94432,0 q 0,0.5744 -0.15576,1.0611 -0.14603,0.4868 -0.43809,0.8373 -0.29205,0.3504 -0.7204,0.5451 -0.41862,0.1947 -0.96379,0.1947 -0.43808,0 -0.77882,-0.1168 -0.33099,-0.1168 -0.49649,-0.2239 v 2.0249 h -0.90538 v -6.7075 q 0.32127,-0.078 0.79829,-0.1655 0.48676,-0.097 1.11955,-0.097 0.58411,0 1.0514,0.185 0.46729,0.1849 0.79829,0.5257 0.331,0.3407 0.50623,0.8372 0.18497,0.4868 0.18497,1.1001 z"
           style="font-size:9.73520756px;line-height:1.25"
           id="path918" />
        <path
           d="m 216.60066,1315.3384 q 0,-0.6717 0.19471,-1.1682 0.1947,-0.5063 0.51596,-0.8373 0.32127,-0.331 0.73988,-0.4965 0.41861,-0.1655 0.8567,-0.1655 1.02219,0 1.56737,0.6426 0.54517,0.6328 0.54517,1.9373 0,0.058 0,0.1557 0,0.088 -0.01,0.1655 h -3.46573 q 0.0584,0.7886 0.45755,1.1975 0.39915,0.4088 1.24611,0.4088 0.47703,0 0.79829,-0.078 0.33099,-0.088 0.49649,-0.1655 l 0.12656,0.7593 q -0.1655,0.088 -0.58411,0.185 -0.40888,0.097 -0.93458,0.097 -0.662,0 -1.14876,-0.1947 -0.47702,-0.2044 -0.78855,-0.5549 -0.31153,-0.3505 -0.46729,-0.8275 -0.14603,-0.4867 -0.14603,-1.0611 z m 3.47547,-0.4965 q 0.01,-0.6133 -0.31152,-1.0027 -0.31153,-0.3992 -0.86644,-0.3992 -0.31152,0 -0.5549,0.1266 -0.23365,0.1168 -0.39915,0.3115 -0.1655,0.1947 -0.26285,0.4478 -0.0876,0.2531 -0.11682,0.516 z"
           style="font-size:9.73520756px;line-height:1.25"
           id="path920" />
        <path
           d="m 224.19017,1312.6904 q 0.11682,0 0.26285,0.02 0.15576,0.01 0.30179,0.039 0.14603,0.019 0.26285,0.049 0.12656,0.02 0.18497,0.039 l -0.15576,0.7886 q -0.10709,-0.039 -0.3602,-0.088 -0.24338,-0.058 -0.63279,-0.058 -0.25312,0 -0.50623,0.058 -0.24338,0.049 -0.32126,0.068 v 4.2543 h -0.90538 v -4.8481 q 0.32126,-0.1169 0.79829,-0.2142 0.47702,-0.1071 1.07087,-0.1071 z"
           style="font-size:9.73520756px;line-height:1.25"
           id="path922" />
        <path
           d="m 227.15667,1317.3341 q 0,0.2629 -0.17523,0.4576 -0.17524,0.1947 -0.47703,0.1947 -0.30179,0 -0.47702,-0.1947 -0.17524,-0.1947 -0.17524,-0.4576 0,-0.2628 0.17524,-0.4576 0.17523,-0.1947 0.47702,-0.1947 0.30179,0 0.47703,0.1947 0.17523,0.1948 0.17523,0.4576 z m 0,-3.8843 q 0,0.2628 -0.17523,0.4575 -0.17524,0.1947 -0.47703,0.1947 -0.30179,0 -0.47702,-0.1947 -0.17524,-0.1947 -0.17524,-0.4575 0,-0.2629 0.17524,-0.4576 0.17523,-0.1947 0.47702,-0.1947 0.30179,0 0.47703,0.1947 0.17523,0.1947 0.17523,0.4576 z"
           style="font-size:9.73520756px;line-height:1.25"
           id="path924" />
        <path
           d="m 232.43863,1317.2075 q 0.32126,0 0.56464,-0.01 0.25312,-0.019 0.41861,-0.058 v -1.509 q -0.0973,-0.049 -0.32126,-0.078 -0.21417,-0.039 -0.5257,-0.039 -0.20444,0 -0.43808,0.029 -0.22391,0.029 -0.41862,0.1266 -0.18497,0.088 -0.31152,0.2531 -0.12656,0.1558 -0.12656,0.4186 0,0.4868 0.31153,0.6815 0.31152,0.1849 0.84696,0.1849 z m -0.0779,-4.5366 q 0.54517,0 0.91511,0.1461 0.37967,0.1363 0.60358,0.3991 0.23364,0.2531 0.331,0.6133 0.0974,0.3505 0.0974,0.7788 v 3.164 q -0.11682,0.019 -0.331,0.058 -0.20444,0.029 -0.46729,0.058 -0.26285,0.029 -0.57438,0.049 -0.30179,0.029 -0.60358,0.029 -0.42835,0 -0.78855,-0.088 -0.3602,-0.088 -0.62305,-0.2726 -0.26285,-0.1947 -0.40888,-0.5062 -0.14603,-0.3116 -0.14603,-0.7497 0,-0.4186 0.1655,-0.7204 0.17523,-0.3017 0.46729,-0.4867 0.29205,-0.185 0.68146,-0.2726 0.38941,-0.088 0.81776,-0.088 0.13629,0 0.28232,0.02 0.14603,0.01 0.27259,0.039 0.13629,0.02 0.23364,0.039 0.0973,0.02 0.13629,0.029 v -0.2531 q 0,-0.2239 -0.0487,-0.4381 -0.0487,-0.2239 -0.17524,-0.3894 -0.12655,-0.1752 -0.35046,-0.2726 -0.21418,-0.107 -0.56465,-0.107 -0.44781,0 -0.78855,0.068 -0.33099,0.058 -0.49649,0.1266 l -0.10709,-0.7497 q 0.17523,-0.078 0.58411,-0.146 0.40888,-0.078 0.88591,-0.078 z"
           style="font-size:9.73520756px;line-height:1.25"
           id="path926" />
        <path
           d="m 235.80199,1312.9435 q 0.31153,-0.078 0.81776,-0.1655 0.51596,-0.088 1.18769,-0.088 0.48676,0 0.81776,0.1363 0.331,0.1266 0.55491,0.3797 0.0681,-0.049 0.21417,-0.1363 0.14603,-0.088 0.36021,-0.1655 0.21417,-0.088 0.47702,-0.146 0.26285,-0.068 0.56464,-0.068 0.58411,0 0.95405,0.1752 0.36994,0.1655 0.57438,0.4771 0.21417,0.3115 0.28232,0.7398 0.0779,0.4284 0.0779,0.9346 v 2.8427 h -0.90537 v -2.648 q 0,-0.4478 -0.0487,-0.7691 -0.0389,-0.3212 -0.1655,-0.5354 -0.11682,-0.2142 -0.33099,-0.3115 -0.20444,-0.1071 -0.53544,-0.1071 -0.45755,0 -0.75935,0.1266 -0.29205,0.1168 -0.39914,0.2141 0.0779,0.2531 0.11682,0.5549 0.0389,0.3018 0.0389,0.6328 v 2.8427 h -0.90537 v -2.648 q 0,-0.4478 -0.0487,-0.7691 -0.0487,-0.3212 -0.17523,-0.5354 -0.11682,-0.2142 -0.331,-0.3115 -0.20444,-0.1071 -0.5257,-0.1071 -0.13629,0 -0.29205,0.01 -0.15577,0.01 -0.3018,0.029 -0.13629,0.01 -0.25311,0.029 -0.11682,0.019 -0.15576,0.029 v 4.2738 h -0.90538 z"
           style="font-size:9.73520756px;line-height:1.25"
           id="path928" />
        <path
           d="m 243.90488,1315.3384 q 0,-0.6717 0.19471,-1.1682 0.1947,-0.5063 0.51596,-0.8373 0.32126,-0.331 0.73988,-0.4965 0.41861,-0.1655 0.8567,-0.1655 1.02219,0 1.56736,0.6426 0.54518,0.6328 0.54518,1.9373 0,0.058 0,0.1557 0,0.088 -0.01,0.1655 h -3.46573 q 0.0584,0.7886 0.45755,1.1975 0.39915,0.4088 1.24611,0.4088 0.47702,0 0.79829,-0.078 0.33099,-0.088 0.49649,-0.1655 l 0.12656,0.7593 q -0.1655,0.088 -0.58411,0.185 -0.40888,0.097 -0.93458,0.097 -0.662,0 -1.14876,-0.1947 -0.47702,-0.2044 -0.78855,-0.5549 -0.31153,-0.3505 -0.46729,-0.8275 -0.14603,-0.4867 -0.14603,-1.0611 z m 3.47547,-0.4965 q 0.01,-0.6133 -0.31153,-1.0027 -0.31152,-0.3992 -0.86643,-0.3992 -0.31153,0 -0.55491,0.1266 -0.23364,0.1168 -0.39914,0.3115 -0.1655,0.1947 -0.26285,0.4478 -0.0876,0.2531 -0.11682,0.516 z"
           style="font-size:9.73520756px;line-height:1.25"
           id="path930" />
        <path
           d="m 249.34291,1315.3384 q 0,-0.6717 0.1947,-1.1682 0.19471,-0.5063 0.51597,-0.8373 0.32126,-0.331 0.73987,-0.4965 0.41862,-0.1655 0.8567,-0.1655 1.0222,0 1.56737,0.6426 0.54517,0.6328 0.54517,1.9373 0,0.058 0,0.1557 0,0.088 -0.01,0.1655 h -3.46574 q 0.0584,0.7886 0.45756,1.1975 0.39914,0.4088 1.2461,0.4088 0.47703,0 0.79829,-0.078 0.331,-0.088 0.4965,-0.1655 l 0.12656,0.7593 q -0.1655,0.088 -0.58412,0.185 -0.40888,0.097 -0.93458,0.097 -0.66199,0 -1.14875,-0.1947 -0.47703,-0.2044 -0.78855,-0.5549 -0.31153,-0.3505 -0.46729,-0.8275 -0.14603,-0.4867 -0.14603,-1.0611 z m 3.47547,-0.4965 q 0.01,-0.6133 -0.31153,-1.0027 -0.31153,-0.3992 -0.86643,-0.3992 -0.31153,0 -0.55491,0.1266 -0.23364,0.1168 -0.39914,0.3115 -0.1655,0.1947 -0.26285,0.4478 -0.0876,0.2531 -0.11683,0.516 z"
           style="font-size:9.73520756px;line-height:1.25"
           id="path932" />
        <path
           d="m 255.06326,1312.9435 q 0.31152,-0.078 0.82749,-0.1655 0.51596,-0.088 1.18769,-0.088 0.60359,0 1.00273,0.1752 0.39914,0.1655 0.63279,0.4771 0.24338,0.3018 0.34073,0.7301 0.0974,0.4284 0.0974,0.9443 v 2.8427 h -0.90537 v -2.648 q 0,-0.4673 -0.0682,-0.7983 -0.0584,-0.331 -0.20444,-0.5354 -0.14603,-0.2044 -0.38941,-0.2921 -0.24338,-0.097 -0.60358,-0.097 -0.14603,0 -0.30179,0.01 -0.15576,0.01 -0.30179,0.029 -0.13629,0.01 -0.25312,0.029 -0.10708,0.019 -0.15576,0.029 v 4.2738 h -0.90537 z"
           style="font-size:9.73520756px;line-height:1.25"
           id="path934" />
        <path
           d="m 264.45377,1312.7975 q -0.37967,1.4213 -0.89564,2.7259 -0.50623,1.3045 -0.98326,2.3364 h -0.81775 q -0.47703,-1.0319 -0.99299,-2.3364 -0.50624,-1.3046 -0.88591,-2.7259 h 0.97352 q 0.11682,0.477 0.27259,1.0222 0.1655,0.5354 0.34073,1.0709 0.18497,0.5257 0.36994,1.0222 0.18497,0.4965 0.35047,0.8859 0.16549,-0.3894 0.35046,-0.8859 0.18497,-0.4965 0.36021,-1.0222 0.18496,-0.5355 0.34073,-1.0709 0.1655,-0.5452 0.28232,-1.0222 z"
           style="font-size:9.73520756px;line-height:1.25"
           id="path936" />
        <path
           d="m 264.97248,1315.3384 q 0,-0.6717 0.1947,-1.1682 0.19471,-0.5063 0.51597,-0.8373 0.32126,-0.331 0.73987,-0.4965 0.41862,-0.1655 0.8567,-0.1655 1.0222,0 1.56737,0.6426 0.54517,0.6328 0.54517,1.9373 0,0.058 0,0.1557 0,0.088 -0.01,0.1655 h -3.46574 q 0.0584,0.7886 0.45756,1.1975 0.39914,0.4088 1.2461,0.4088 0.47703,0 0.79829,-0.078 0.331,-0.088 0.4965,-0.1655 l 0.12656,0.7593 q -0.1655,0.088 -0.58412,0.185 -0.40888,0.097 -0.93458,0.097 -0.66199,0 -1.14875,-0.1947 -0.47703,-0.2044 -0.78855,-0.5549 -0.31153,-0.3505 -0.46729,-0.8275 -0.14603,-0.4867 -0.14603,-1.0611 z m 3.47547,-0.4965 q 0.01,-0.6133 -0.31153,-1.0027 -0.31153,-0.3992 -0.86643,-0.3992 -0.31153,0 -0.55491,0.1266 -0.23364,0.1168 -0.39914,0.3115 -0.1655,0.1947 -0.26285,0.4478 -0.0876,0.2531 -0.11683,0.516 z"
           style="font-size:9.73520756px;line-height:1.25"
           id="path938" />
        <path
           d="m 270.69283,1312.9435 q 0.31152,-0.078 0.82749,-0.1655 0.51596,-0.088 1.18769,-0.088 0.60359,0 1.00273,0.1752 0.39914,0.1655 0.63279,0.4771 0.24338,0.3018 0.34073,0.7301 0.0974,0.4284 0.0974,0.9443 v 2.8427 h -0.90537 v -2.648 q 0,-0.4673 -0.0682,-0.7983 -0.0584,-0.331 -0.20444,-0.5354 -0.14603,-0.2044 -0.38941,-0.2921 -0.24338,-0.097 -0.60358,-0.097 -0.14603,0 -0.30179,0.01 -0.15576,0.01 -0.30179,0.029 -0.13629,0.01 -0.25312,0.029 -0.10708,0.019 -0.15576,0.029 v 4.2738 h -0.90537 z"
           style="font-size:9.73520756px;line-height:1.25"
           id="path940" />
        <path
           d="m 279.45664,1317.3536 q -0.11683,0.078 -0.45756,0.2044 -0.33099,0.1168 -0.77881,0.1168 -0.45756,0 -0.86644,-0.146 -0.39914,-0.146 -0.70093,-0.4478 -0.30179,-0.3115 -0.47703,-0.7691 -0.17523,-0.4575 -0.17523,-1.0903 0,-0.5549 0.1655,-1.0125 0.1655,-0.4673 0.47702,-0.7983 0.32126,-0.3407 0.77882,-0.5257 0.45755,-0.1947 1.03193,-0.1947 0.63279,0 1.10008,0.097 0.47702,0.088 0.79829,0.1655 v 4.5171 q 0,1.1682 -0.60359,1.6939 -0.60358,0.5257 -1.83022,0.5257 -0.47702,0 -0.90537,-0.078 -0.41861,-0.078 -0.73014,-0.1849 l 0.1655,-0.7886 q 0.27258,0.1071 0.66199,0.185 0.39915,0.088 0.82749,0.088 0.80803,0 1.15849,-0.3213 0.36021,-0.3212 0.36021,-1.0222 z m -0.01,-3.7578 q -0.13629,-0.039 -0.36994,-0.068 -0.22391,-0.039 -0.61331,-0.039 -0.73014,0 -1.12929,0.477 -0.38941,0.477 -0.38941,1.2656 0,0.4381 0.10709,0.7496 0.11682,0.3115 0.30179,0.516 0.19471,0.2044 0.43809,0.3018 0.25311,0.097 0.51596,0.097 0.36021,0 0.662,-0.097 0.30179,-0.1071 0.47702,-0.2434 z"
           style="font-size:9.73520756px;line-height:1.25"
           id="path942" />
        <path
           d="m 283.62452,1317.2075 q 0.32126,0 0.56464,-0.01 0.25312,-0.019 0.41862,-0.058 v -1.509 q -0.0974,-0.049 -0.32126,-0.078 -0.21418,-0.039 -0.5257,-0.039 -0.20444,0 -0.43809,0.029 -0.22391,0.029 -0.41861,0.1266 -0.18497,0.088 -0.31153,0.2531 -0.12656,0.1558 -0.12656,0.4186 0,0.4868 0.31153,0.6815 0.31153,0.1849 0.84696,0.1849 z m -0.0779,-4.5366 q 0.54517,0 0.91511,0.1461 0.37967,0.1363 0.60358,0.3991 0.23365,0.2531 0.331,0.6133 0.0974,0.3505 0.0974,0.7788 v 3.164 q -0.11682,0.019 -0.331,0.058 -0.20443,0.029 -0.46729,0.058 -0.26285,0.029 -0.57437,0.049 -0.30179,0.029 -0.60359,0.029 -0.42834,0 -0.78855,-0.088 -0.3602,-0.088 -0.62305,-0.2726 -0.26285,-0.1947 -0.40888,-0.5062 -0.14603,-0.3116 -0.14603,-0.7497 0,-0.4186 0.1655,-0.7204 0.17524,-0.3017 0.46729,-0.4867 0.29206,-0.185 0.68147,-0.2726 0.3894,-0.088 0.81775,-0.088 0.1363,0 0.28232,0.02 0.14603,0.01 0.27259,0.039 0.13629,0.02 0.23365,0.039 0.0974,0.02 0.13629,0.029 v -0.2531 q 0,-0.2239 -0.0487,-0.4381 -0.0487,-0.2239 -0.17523,-0.3894 -0.12656,-0.1752 -0.35047,-0.2726 -0.21417,-0.107 -0.56464,-0.107 -0.44782,0 -0.78855,0.068 -0.331,0.058 -0.4965,0.1266 l -0.10709,-0.7497 q 0.17524,-0.078 0.58412,-0.146 0.40888,-0.078 0.8859,-0.078 z"
           style="font-size:9.73520756px;line-height:1.25"
           id="path944" />
        <path
           d="m 288.85704,1312.6904 q 0.11683,0 0.26286,0.02 0.15576,0.01 0.30179,0.039 0.14602,0.019 0.26285,0.049 0.12656,0.02 0.18497,0.039 l -0.15577,0.7886 q -0.10708,-0.039 -0.3602,-0.088 -0.24338,-0.058 -0.63279,-0.058 -0.25311,0 -0.50623,0.058 -0.24338,0.049 -0.32126,0.068 v 4.2543 h -0.90538 v -4.8481 q 0.32127,-0.1169 0.79829,-0.2142 0.47703,-0.1071 1.07087,-0.1071 z"
           style="font-size:9.73520756px;line-height:1.25"
           id="path946" />
        <path
           d="m 292.46607,1317.2075 q 0.32127,0 0.56465,-0.01 0.25311,-0.019 0.41861,-0.058 v -1.509 q -0.0973,-0.049 -0.32126,-0.078 -0.21418,-0.039 -0.5257,-0.039 -0.20444,0 -0.43809,0.029 -0.22391,0.029 -0.41861,0.1266 -0.18497,0.088 -0.31153,0.2531 -0.12655,0.1558 -0.12655,0.4186 0,0.4868 0.31152,0.6815 0.31153,0.1849 0.84696,0.1849 z m -0.0779,-4.5366 q 0.54517,0 0.91511,0.1461 0.37968,0.1363 0.60359,0.3991 0.23364,0.2531 0.33099,0.6133 0.0974,0.3505 0.0974,0.7788 v 3.164 q -0.11682,0.019 -0.33099,0.058 -0.20444,0.029 -0.46729,0.058 -0.26285,0.029 -0.57438,0.049 -0.30179,0.029 -0.60358,0.029 -0.42835,0 -0.78855,-0.088 -0.36021,-0.088 -0.62306,-0.2726 -0.26285,-0.1947 -0.40888,-0.5062 -0.14602,-0.3116 -0.14602,-0.7497 0,-0.4186 0.16549,-0.7204 0.17524,-0.3017 0.46729,-0.4867 0.29206,-0.185 0.68147,-0.2726 0.38941,-0.088 0.81776,-0.088 0.13629,0 0.28232,0.02 0.14603,0.01 0.27258,0.039 0.1363,0.02 0.23365,0.039 0.0974,0.02 0.13629,0.029 v -0.2531 q 0,-0.2239 -0.0487,-0.4381 -0.0487,-0.2239 -0.17523,-0.3894 -0.12656,-0.1752 -0.35047,-0.2726 -0.21417,-0.107 -0.56464,-0.107 -0.44782,0 -0.78855,0.068 -0.331,0.058 -0.4965,0.1266 l -0.10708,-0.7497 q 0.17523,-0.078 0.58411,-0.146 0.40888,-0.078 0.8859,-0.078 z"
           style="font-size:9.73520756px;line-height:1.25"
           id="path948" />
        <path
           d="m 301.76791,1317.4412 q -0.31152,0 -0.51596,-0.088 -0.20444,-0.088 -0.34073,-0.2337 -0.21418,0.1169 -0.51597,0.2045 -0.30179,0.078 -0.60358,0.078 -0.46729,0 -0.8567,-0.1461 -0.37967,-0.146 -0.662,-0.4283 -0.28232,-0.2921 -0.43808,-0.7107 -0.15576,-0.4186 -0.15576,-0.9735 0,-0.4673 0.14603,-0.8762 0.14602,-0.4186 0.42834,-0.7204 0.29206,-0.3115 0.70094,-0.4868 0.41861,-0.1752 0.94431,-0.1752 0.4965,0 0.90538,0.078 0.41861,0.078 0.64252,0.1558 v 2.9789 q 0,0.3116 0.10709,0.4381 0.10709,0.1266 0.28232,0.1266 0.25312,0 0.43809,-0.1753 0.1947,-0.1752 0.31152,-0.4575 0.12656,-0.2823 0.18497,-0.6328 0.0584,-0.3602 0.0584,-0.7301 0,-0.6134 -0.21417,-1.1488 -0.21418,-0.5452 -0.61332,-0.954 -0.39914,-0.4089 -0.97352,-0.6426 -0.56464,-0.2336 -1.27531,-0.2336 -0.71067,0 -1.30452,0.2434 -0.59385,0.2336 -1.0222,0.6814 -0.42835,0.4381 -0.67173,1.0806 -0.23364,0.6426 -0.23364,1.4603 0,0.8567 0.25311,1.509 0.25312,0.6425 0.70094,1.0806 0.45755,0.4283 1.07087,0.6425 0.62305,0.2239 1.36293,0.2239 0.57438,0 0.94431,-0.068 0.37968,-0.068 0.48677,-0.1071 l 0.0974,0.7204 q -0.1655,0.058 -0.60359,0.1265 -0.42834,0.068 -0.92484,0.068 -0.86643,0 -1.63552,-0.2531 -0.76908,-0.2434 -1.34345,-0.7594 -0.57438,-0.5062 -0.91511,-1.2948 -0.331,-0.7982 -0.331,-1.8886 0,-1.0514 0.331,-1.8399 0.33099,-0.7886 0.8859,-1.3046 0.56464,-0.5257 1.29478,-0.7885 0.73988,-0.2629 1.55764,-0.2629 0.79828,0 1.50895,0.2629 0.71067,0.2531 1.24611,0.7496 0.53544,0.4868 0.84696,1.1877 0.31153,0.6912 0.31153,1.5674 0,0.662 -0.15576,1.1682 -0.14603,0.5062 -0.39915,0.8567 -0.25311,0.3407 -0.60358,0.516 -0.35047,0.1752 -0.73988,0.1752 z m -1.94704,-0.7886 q 0.20444,0 0.40888,-0.039 0.21418,-0.049 0.37967,-0.1363 -0.0292,-0.1266 -0.0389,-0.2531 -0.01,-0.1266 -0.01,-0.2434 v -2.2878 q -0.0584,-0.019 -0.22391,-0.039 -0.1655,-0.019 -0.36994,-0.019 -0.6912,0 -1.03193,0.4284 -0.34073,0.4283 -0.34073,1.0806 0,0.6912 0.33099,1.1001 0.331,0.4088 0.89564,0.4088 z"
           style="font-size:9.73520756px;line-height:1.25"
           id="path950" />
        <path
           d="m 308.24395,1317.3536 q -0.11682,0.078 -0.45755,0.2044 -0.331,0.1168 -0.77882,0.1168 -0.45755,0 -0.86643,-0.146 -0.39915,-0.146 -0.70094,-0.4478 -0.30179,-0.3115 -0.47702,-0.7691 -0.17524,-0.4575 -0.17524,-1.0903 0,-0.5549 0.1655,-1.0125 0.1655,-0.4673 0.47703,-0.7983 0.32126,-0.3407 0.77881,-0.5257 0.45756,-0.1947 1.03194,-0.1947 0.63278,0 1.10007,0.097 0.47703,0.088 0.79829,0.1655 v 4.5171 q 0,1.1682 -0.60358,1.6939 -0.60358,0.5257 -1.83022,0.5257 -0.47703,0 -0.90537,-0.078 -0.41862,-0.078 -0.73015,-0.1849 l 0.1655,-0.7886 q 0.27259,0.1071 0.662,0.185 0.39914,0.088 0.82749,0.088 0.80802,0 1.15849,-0.3213 0.3602,-0.3212 0.3602,-1.0222 z m -0.01,-3.7578 q -0.1363,-0.039 -0.36994,-0.068 -0.22391,-0.039 -0.61332,-0.039 -0.73014,0 -1.12928,0.477 -0.38941,0.477 -0.38941,1.2656 0,0.4381 0.10709,0.7496 0.11682,0.3115 0.30179,0.516 0.1947,0.2044 0.43808,0.3018 0.25312,0.097 0.51597,0.097 0.3602,0 0.66199,-0.097 0.30179,-0.1071 0.47703,-0.2434 z"
           style="font-size:9.73520756px;line-height:1.25"
           id="path952" />
        <path
           d="m 310.69845,1312.9435 q 0.31153,-0.078 0.81776,-0.1655 0.51596,-0.088 1.18769,-0.088 0.48676,0 0.81776,0.1363 0.331,0.1266 0.55491,0.3797 0.0681,-0.049 0.21417,-0.1363 0.14603,-0.088 0.3602,-0.1655 0.21418,-0.088 0.47703,-0.146 0.26285,-0.068 0.56464,-0.068 0.58411,0 0.95405,0.1752 0.36994,0.1655 0.57438,0.4771 0.21417,0.3115 0.28232,0.7398 0.0779,0.4284 0.0779,0.9346 v 2.8427 h -0.90537 v -2.648 q 0,-0.4478 -0.0487,-0.7691 -0.0389,-0.3212 -0.1655,-0.5354 -0.11682,-0.2142 -0.331,-0.3115 -0.20443,-0.1071 -0.53543,-0.1071 -0.45756,0 -0.75935,0.1266 -0.29205,0.1168 -0.39914,0.2141 0.0779,0.2531 0.11682,0.5549 0.0389,0.3018 0.0389,0.6328 v 2.8427 h -0.90537 v -2.648 q 0,-0.4478 -0.0487,-0.7691 -0.0487,-0.3212 -0.17523,-0.5354 -0.11682,-0.2142 -0.331,-0.3115 -0.20444,-0.1071 -0.5257,-0.1071 -0.13629,0 -0.29206,0.01 -0.15576,0.01 -0.30179,0.029 -0.13629,0.01 -0.25311,0.029 -0.11683,0.019 -0.15577,0.029 v 4.2738 h -0.90537 z"
           style="font-size:9.73520756px;line-height:1.25"
           id="path954" />
        <path
           d="m 320.79705,1317.2075 q 0.32127,0 0.56465,-0.01 0.25311,-0.019 0.41861,-0.058 v -1.509 q -0.0974,-0.049 -0.32126,-0.078 -0.21418,-0.039 -0.5257,-0.039 -0.20444,0 -0.43809,0.029 -0.22391,0.029 -0.41861,0.1266 -0.18497,0.088 -0.31153,0.2531 -0.12656,0.1558 -0.12656,0.4186 0,0.4868 0.31153,0.6815 0.31153,0.1849 0.84696,0.1849 z m -0.0779,-4.5366 q 0.54517,0 0.91511,0.1461 0.37967,0.1363 0.60358,0.3991 0.23365,0.2531 0.331,0.6133 0.0974,0.3505 0.0974,0.7788 v 3.164 q -0.11682,0.019 -0.33099,0.058 -0.20444,0.029 -0.46729,0.058 -0.26285,0.029 -0.57438,0.049 -0.30179,0.029 -0.60358,0.029 -0.42835,0 -0.78856,-0.088 -0.3602,-0.088 -0.62305,-0.2726 -0.26285,-0.1947 -0.40888,-0.5062 -0.14603,-0.3116 -0.14603,-0.7497 0,-0.4186 0.1655,-0.7204 0.17524,-0.3017 0.46729,-0.4867 0.29206,-0.185 0.68147,-0.2726 0.38941,-0.088 0.81775,-0.088 0.1363,0 0.28233,0.02 0.14602,0.01 0.27258,0.039 0.13629,0.02 0.23365,0.039 0.0974,0.02 0.13629,0.029 v -0.2531 q 0,-0.2239 -0.0487,-0.4381 -0.0487,-0.2239 -0.17523,-0.3894 -0.12656,-0.1752 -0.35047,-0.2726 -0.21417,-0.107 -0.56464,-0.107 -0.44782,0 -0.78855,0.068 -0.331,0.058 -0.4965,0.1266 l -0.10708,-0.7497 q 0.17523,-0.078 0.58411,-0.146 0.40888,-0.078 0.8859,-0.078 z"
           style="font-size:9.73520756px;line-height:1.25"
           id="path956" />
        <path
           d="m 325.06578,1317.8598 h -0.90537 v -5.0623 h 0.90537 z m -0.45755,-5.9774 q -0.24338,0 -0.41862,-0.1558 -0.16549,-0.1655 -0.16549,-0.4381 0,-0.2725 0.16549,-0.4283 0.17524,-0.1655 0.41862,-0.1655 0.24338,0 0.40888,0.1655 0.17523,0.1558 0.17523,0.4283 0,0.2726 -0.17523,0.4381 -0.1655,0.1558 -0.40888,0.1558 z"
           style="font-size:9.73520756px;line-height:1.25"
           id="path958" />
        <path
           d="m 328.15093,1317.9572 q -0.83722,-0.02 -1.18769,-0.3602 -0.35047,-0.3408 -0.35047,-1.0612 v -6.0748 l 0.90537,-0.1557 v 6.0845 q 0,0.2239 0.0389,0.3699 0.0389,0.1461 0.12655,0.2337 0.0876,0.088 0.23365,0.1363 0.14603,0.039 0.3602,0.068 z"
           style="font-size:9.73520756px;line-height:1.25"
           id="path960" />
        <path
           d="m 330.36509,1317.3341 q 0,0.2629 -0.17524,0.4576 -0.17523,0.1947 -0.47702,0.1947 -0.30179,0 -0.47703,-0.1947 -0.17523,-0.1947 -0.17523,-0.4576 0,-0.2628 0.17523,-0.4576 0.17524,-0.1947 0.47703,-0.1947 0.30179,0 0.47702,0.1947 0.17524,0.1948 0.17524,0.4576 z"
           style="font-size:9.73520756px;line-height:1.25"
           id="path962" />
        <path
           d="m 333.89014,1317.9766 q -0.61332,0 -1.08061,-0.1947 -0.45756,-0.1947 -0.77882,-0.5451 -0.31152,-0.3505 -0.46729,-0.8275 -0.15576,-0.4868 -0.15576,-1.0709 0,-0.5841 0.1655,-1.0709 0.17523,-0.4867 0.48676,-0.8372 0.31152,-0.3602 0.75934,-0.5549 0.45756,-0.2045 1.01247,-0.2045 0.34073,0 0.68146,0.058 0.34073,0.058 0.65226,0.1849 l -0.20444,0.7691 q -0.20444,-0.097 -0.47703,-0.1558 -0.26285,-0.058 -0.56464,-0.058 -0.75934,0 -1.16822,0.4771 -0.39915,0.477 -0.39915,1.3921 0,0.4089 0.0876,0.7496 0.0974,0.3407 0.29206,0.5841 0.20444,0.2434 0.51596,0.3797 0.31153,0.1265 0.75935,0.1265 0.3602,0 0.65226,-0.068 0.29205,-0.068 0.45755,-0.146 l 0.12656,0.7593 q -0.0779,0.049 -0.22391,0.097 -0.14603,0.039 -0.331,0.068 -0.18497,0.039 -0.39914,0.058 -0.20444,0.029 -0.39914,0.029 z"
           style="font-size:9.73520756px;line-height:1.25"
           id="path964" />
        <path
           d="m 340.5507,1315.3287 q 0,0.6035 -0.17524,1.0903 -0.17523,0.4868 -0.49649,0.8372 -0.31153,0.3505 -0.74961,0.5452 -0.43809,0.185 -0.95405,0.185 -0.51597,0 -0.95405,-0.185 -0.43809,-0.1947 -0.75935,-0.5452 -0.31153,-0.3504 -0.48676,-0.8372 -0.17523,-0.4868 -0.17523,-1.0903 0,-0.5939 0.17523,-1.0807 0.17523,-0.4965 0.48676,-0.8469 0.32126,-0.3505 0.75935,-0.5355 0.43808,-0.1947 0.95405,-0.1947 0.51596,0 0.95405,0.1947 0.43808,0.185 0.74961,0.5355 0.32126,0.3504 0.49649,0.8469 0.17524,0.4868 0.17524,1.0807 z m -0.94432,0 q 0,-0.8567 -0.38941,-1.3532 -0.37967,-0.5063 -1.04166,-0.5063 -0.662,0 -1.05141,0.5063 -0.37967,0.4965 -0.37967,1.3532 0,0.8566 0.37967,1.3629 0.38941,0.4965 1.05141,0.4965 0.66199,0 1.04166,-0.4965 0.38941,-0.5063 0.38941,-1.3629 z"
           style="font-size:9.73520756px;line-height:1.25"
           id="path966" />
        <path
           d="m 341.82449,1312.9435 q 0.31152,-0.078 0.81775,-0.1655 0.51597,-0.088 1.1877,-0.088 0.48676,0 0.81776,0.1363 0.33099,0.1266 0.5549,0.3797 0.0682,-0.049 0.21418,-0.1363 0.14603,-0.088 0.3602,-0.1655 0.21417,-0.088 0.47703,-0.146 0.26285,-0.068 0.56464,-0.068 0.58411,0 0.95405,0.1752 0.36994,0.1655 0.57438,0.4771 0.21417,0.3115 0.28232,0.7398 0.0779,0.4284 0.0779,0.9346 v 2.8427 h -0.90538 v -2.648 q 0,-0.4478 -0.0487,-0.7691 -0.0389,-0.3212 -0.1655,-0.5354 -0.11682,-0.2142 -0.331,-0.3115 -0.20444,-0.1071 -0.53543,-0.1071 -0.45756,0 -0.75935,0.1266 -0.29206,0.1168 -0.39914,0.2141 0.0779,0.2531 0.11682,0.5549 0.0389,0.3018 0.0389,0.6328 v 2.8427 h -0.90538 v -2.648 q 0,-0.4478 -0.0487,-0.7691 -0.0487,-0.3212 -0.17523,-0.5354 -0.11683,-0.2142 -0.331,-0.3115 -0.20444,-0.1071 -0.5257,-0.1071 -0.1363,0 -0.29206,0.01 -0.15576,0.01 -0.30179,0.029 -0.13629,0.01 -0.25312,0.029 -0.11682,0.019 -0.15576,0.029 v 4.2738 h -0.90537 z"
           style="font-size:9.73520756px;line-height:1.25"
           id="path968" />
      </g>
      <path
         style="fill:#55250b;fill-opacity:1"
         d="m 320.91435,1289.3215 c -0.85527,-0.1289 -1.64629,-0.5421 -2.20215,-1.1501 -0.40148,-0.4392 -0.55801,-0.7211 -0.92085,-1.6582 -0.0949,-0.2454 -0.12401,-0.2329 -0.88222,0.3764 -1.81646,1.4598 -4.18382,2.2106 -6.9702,2.2106 -2.73509,0 -4.86547,-1.12 -5.46386,-2.8727 -0.28681,-0.8401 -0.26519,-2.2546 0.0452,-2.9562 0.31939,-0.7221 1.0336,-1.4661 1.75988,-1.8337 0.6051,-0.3061 1.91008,-0.6408 2.51306,-0.6446 0.4163,0 0.30029,-0.1835 -0.1762,-0.2749 -1.08275,-0.2075 -2.76105,-1.6258 -3.42303,-2.8927 -0.76054,-1.4552 -0.76122,-1.4615 -0.76122,-6.9642 0,-5.8801 0.0614,-6.3913 0.98833,-8.2393 1.23001,-2.4524 3.2281,-3.9288 5.81329,-4.2953 2.84882,-0.4039 6.31432,0.6995 7.76776,2.4731 0.21911,0.2674 0.42399,0.4892 0.45529,0.4928 0.0313,0 0.20121,-0.2216 0.37758,-0.5009 0.65652,-1.0392 1.97783,-1.9926 3.22203,-2.3251 1.39818,-0.3736 3.30851,-0.2483 4.70786,0.3086 1.0802,0.43 2.35333,1.7073 2.91655,2.9264 0.8488,1.8372 0.87514,2.1145 0.92508,9.749 0.0292,4.4734 0.004,7.0194 -0.0759,7.4555 -0.16906,0.9307 -0.82888,2.2182 -1.37697,2.6875 -0.24869,0.2129 -0.45212,0.4333 -0.45212,0.4902 0,0.056 0.15165,0.2464 0.33701,0.4213 0.18536,0.1751 0.5055,0.6605 0.7114,1.079 0.34261,0.6964 0.37366,0.8479 0.36585,1.7874 -0.012,1.3883 -0.31259,2.1626 -1.17667,3.026 -0.48124,0.4809 -0.81598,0.7006 -1.37583,0.9033 -0.70122,0.2539 -0.90333,0.2691 -3.86998,0.2932 -1.72159,0.015 -3.4221,-0.018 -3.77894,-0.072 z m 7.07754,-2.4125 c 0.62627,-0.3198 0.94116,-0.8915 0.95329,-1.7305 0.0109,-0.7345 -0.36574,-1.377 -1.08563,-1.8537 l -0.47411,-0.3141 -2.83517,-0.033 c -2.69261,-0.033 -2.86016,-0.021 -3.33296,0.2069 -0.62313,0.3017 -1.13913,0.8803 -1.31836,1.4786 -0.15829,0.5283 -0.0138,1.3851 0.31967,1.8938 0.36731,0.5605 0.63396,0.6 4.0806,0.6049 3.0897,0 3.20738,0 3.69267,-0.2517 z m -15.40586,-0.314 c 1.48703,-0.3758 2.47362,-0.9331 3.5135,-1.9846 0.50088,-0.5065 1.0032,-1.0864 1.11629,-1.2888 l 0.20565,-0.3678 -4.18013,0 c -2.454,0 -4.46853,0.05 -4.87856,0.1215 -0.82858,0.1444 -1.53715,0.5141 -1.73511,0.9053 -0.2239,0.4424 -0.18041,1.3628 0.085,1.7978 0.26007,0.4267 1.15432,0.8913 2.02043,1.0497 0.80256,0.1467 2.83713,0.023 3.85298,-0.2331 z m 5.70749,-14.4285 -0.0313,-8.5107 -0.37945,-0.7708 c -0.80502,-1.635 -2.7859,-2.5959 -5.36858,-2.6039 -1.81326,0 -2.95228,0.4659 -4.10837,1.7017 -0.37761,0.4038 -0.66745,0.7533 -0.64415,0.7764 0.0234,0.023 0.32106,-0.067 0.66166,-0.2018 0.8891,-0.3509 2.59277,-0.3553 3.69584,-0.012 0.82042,0.2571 1.90165,0.929 2.3884,1.4838 0.41021,0.4677 0.93476,1.4976 1.14941,2.2566 0.16614,0.5873 0.18753,1.2754 0.16705,5.3727 -0.0253,5.0661 -0.0626,5.4407 -0.64879,6.5176 -0.57396,1.0546 -1.46385,1.7754 -2.73584,2.216 l -0.7789,0.2697 3.33212,0.013 3.33214,0.012 -0.0313,-8.5108 z m 8.8653,8.3517 c 1.32339,-0.3525 1.93228,-0.9664 2.18991,-2.2083 0.16185,-0.7802 0.16851,-10.8377 0.009,-12.8085 -0.16661,-2.0517 -0.54231,-3.1997 -1.33383,-4.0759 -0.81215,-0.8989 -1.98054,-1.2508 -3.68592,-1.11 -1.86416,0.1538 -2.94058,1.2291 -3.48152,3.4779 -0.16225,0.6743 -0.19288,1.8505 -0.23002,8.8308 l -0.0427,8.0532 2.99413,0 c 2.175,0 3.15487,-0.043 3.58161,-0.1578 z m -15.47386,-2.197 c 0.7653,-0.2412 1.42066,-0.7915 1.69796,-1.4259 0.19337,-0.4423 0.21573,-0.8863 0.24723,-4.9062 0.0232,-2.9593 -0.007,-4.6231 -0.0933,-5.0354 -0.17939,-0.8643 -0.71729,-1.6051 -1.47062,-2.0258 -0.52615,-0.2936 -0.76837,-0.3526 -1.62095,-0.3934 -0.90911,-0.042 -1.06012,-0.021 -1.62402,0.2564 -0.70999,0.3474 -1.51274,1.1794 -1.90389,1.9737 -0.26303,0.5341 -0.26518,0.5723 -0.26518,4.6955 l 0,4.1569 0.37729,0.7664 c 0.40042,0.8134 1.00718,1.4204 1.87074,1.872 0.61099,0.3193 1.88471,0.3494 2.78465,0.065 z m -30.61776,10.1454 c -1.45361,-0.3521 -2.62722,-1.1653 -3.21603,-2.2283 -0.3169,-0.5723 -0.33763,-0.6866 -0.33763,-1.8617 0,-1.1756 0.0205,-1.2894 0.33816,-1.8626 0.55307,-0.9986 1.57343,-1.6935 2.88348,-1.9642 0.3879,-0.08 0.70466,-0.1739 0.70396,-0.2082 -0.001,-0.034 -0.21843,-0.1638 -0.48375,-0.2877 -0.74049,-0.3454 -2.03089,-1.6931 -2.45949,-2.5689 -0.68163,-1.3926 -0.69517,-1.5245 -0.69448,-6.7673 10e-4,-5.1295 0.0417,-5.6057 0.60333,-6.996 0.85154,-2.1081 2.59197,-3.9375 4.66591,-4.9044 1.25203,-0.5837 2.01299,-0.7261 3.8333,-0.717 1.96723,0.013 2.92038,0.2218 4.50568,1.0019 1.98183,0.9755 3.37321,2.7659 3.80775,4.9001 0.21318,1.0468 0.18611,3.8289 -0.0458,4.7236 -0.25763,0.9934 -0.66345,1.8016 -1.1335,2.2569 l -0.38802,0.3761 0.48201,0.7189 c 0.78638,1.1727 0.9846,1.8985 1.05169,3.8521 0.0467,1.3597 0.0195,1.8417 -0.14067,2.5043 -0.3604,1.4894 -1.05468,2.5791 -2.04805,3.2147 -1.17023,0.7485 -1.31707,0.7673 -6.66009,0.8503 -5.32925,0.083 -5.67535,0.126 -6.31222,0.7909 -0.43318,0.4521 -0.52484,1.3456 -0.19896,1.9401 0.26144,0.4771 1.15476,0.9708 2.05916,1.1385 0.35986,0.067 3.16901,0.1138 6.80094,0.1138 l 6.18781,0 0,1.0816 0,1.0811 -6.57327,-0.012 c -5.21978,-0.012 -6.70875,-0.042 -7.23109,-0.1689 z m 10.27587,-8.4353 c 0.69175,-0.3121 1.08079,-0.7325 1.38792,-1.4999 0.22366,-0.5587 0.25761,-0.8509 0.25987,-2.2362 0.002,-1.5481 -0.007,-1.6148 -0.34911,-2.3335 -0.6826,-1.4355 -1.34988,-1.9349 -2.58607,-1.9349 l -0.72735,0 -0.074,1.0419 c -0.0406,0.573 -0.0751,1.5591 -0.0767,2.1911 -0.004,1.3232 -0.11282,1.8937 -0.53524,2.7867 -0.33871,0.7162 -1.1925,1.6112 -1.86322,1.9535 -0.2444,0.1247 -0.44436,0.2578 -0.44436,0.2958 0,0.037 1.01162,0.046 2.24802,0.018 1.94524,-0.045 2.317,-0.083 2.76021,-0.2825 z m -6.17963,-1.743 c 0.73055,-0.2568 1.19485,-0.6488 1.55175,-1.3103 0.23855,-0.442 0.24665,-0.5905 0.279,-5.1117 0.0389,-5.4227 0.0224,-5.54 -0.89888,-6.4631 -0.63189,-0.6329 -1.42264,-0.9115 -2.5629,-0.9028 -1.30192,0.013 -2.50172,0.8532 -3.18016,2.2349 l -0.3346,0.6815 0,4.0408 0,4.0407 0.35869,0.7572 c 0.43159,0.9109 1.10394,1.6131 1.89907,1.9833 0.76471,0.356 1.9577,0.3764 2.88803,0.048 z m 6.89987,-8.5794 c 0.76728,-0.3207 1.10091,-1.3602 1.10091,-3.4302 0,-2.155 -0.40209,-3.2992 -1.53633,-4.3719 -1.13481,-1.0732 -2.69657,-1.6083 -4.72393,-1.6192 -1.74893,-0.013 -2.66342,0.2539 -3.95615,1.1379 -0.78745,0.5385 -1.46315,1.2177 -1.10898,1.1148 1.1733,-0.3413 1.92261,-0.3729 3.07322,-0.1303 2.01475,0.4248 3.46301,1.7002 4.04742,3.5642 0.17062,0.5443 0.25666,1.2037 0.30338,2.325 l 0.0652,1.565 1.18191,0 c 0.74055,0 1.32063,-0.058 1.55338,-0.1553 z m -26.21141,16.372 c -1.56806,-0.4416 -2.58868,-1.2794 -3.29129,-2.7011 -0.68422,-1.3846 -0.81918,-2.1434 -0.89094,-5.0074 l -0.0621,-2.4756 1.09509,0 1.09509,0 0,1.6991 c 0,3.7085 0.55618,5.4003 2.00919,6.1113 0.57937,0.2834 0.78522,0.3223 1.68718,0.3188 0.8218,0 1.12051,-0.052 1.49336,-0.2469 1.1919,-0.621 1.83521,-1.9905 2.23222,-4.7522 0.20716,-1.4409 0.2064,-12.1709 -5.7e-4,-13.7963 -0.46054,-3.612 -1.53204,-5.0416 -3.77851,-5.0416 -1.80923,0 -2.80533,0.829 -3.35885,2.795 -0.13782,0.4895 -0.20736,1.3314 -0.25124,3.0425 l -0.0606,2.3657 -1.09554,-0.033 -1.09556,-0.033 -0.0352,-1.0814 c -0.0667,-2.0524 0.22659,-4.477 0.69735,-5.7637 0.52232,-1.4274 1.76691,-2.6798 3.15579,-3.1752 0.76693,-0.2736 2.07114,-0.388 2.98219,-0.2617 2.34908,0.3254 3.92203,1.9383 4.63545,4.7536 0.47347,1.8683 0.51587,2.6402 0.51587,9.3981 0,5.7609 -0.0234,6.6266 -0.20834,7.725 -0.55273,3.2823 -1.59023,4.9977 -3.5639,5.8925 -0.66936,0.3034 -0.92135,0.3526 -2.02466,0.3939 -0.91042,0.033 -1.43245,0 -1.88093,-0.1279 z m 74.66806,0 c -2.01715,-0.5681 -3.27782,-1.9391 -3.88768,-4.2275 -0.19459,-0.73 -0.24833,-1.3501 -0.29689,-3.4242 l -0.0594,-2.5324 1.0949,0 1.0949,0 0.002,1.7927 c 0.007,4.6503 0.94277,6.3142 3.56881,6.3375 1.96605,0.018 2.86892,-0.8037 3.49606,-3.179 0.43144,-1.6341 0.5021,-2.8597 0.5021,-8.7074 0,-5.9058 -0.0765,-7.2098 -0.51962,-8.8581 -0.28349,-1.0545 -0.57319,-1.6214 -1.14565,-2.2425 -0.55242,-0.5994 -1.2209,-0.851 -2.26165,-0.851 -1.81019,0 -2.81953,0.8365 -3.36668,2.7898 -0.13933,0.4975 -0.20593,1.3208 -0.24623,3.0437 l -0.0553,2.3618 -1.12532,0 -1.12533,0 8e-5,-1.3373 c 0,-1.61 0.17443,-3.5713 0.40713,-4.5814 0.3541,-1.537 1.37224,-3.0329 2.52481,-3.7099 0.73299,-0.4305 1.36206,-0.6297 2.29988,-0.7282 2.65792,-0.2794 4.72297,0.907 5.78411,3.3233 0.30246,0.6885 0.66031,2.147 0.84607,3.4481 0.20946,1.4672 0.20649,13.3841 -0.004,14.7402 -0.5518,3.5603 -1.5864,5.3527 -3.62227,6.2759 -0.66936,0.3034 -0.92136,0.3524 -2.02467,0.3935 -0.91041,0.033 -1.43244,0 -1.88094,-0.1276 z m 39.94671,-0.018 c -1.1829,-0.1978 -2.60987,-0.9884 -3.33105,-1.8453 -0.54157,-0.6438 -1.1993,-1.8583 -1.48713,-2.7461 -0.63185,-1.9486 -0.89328,-4.9049 -0.65263,-7.3795 0.24996,-2.5701 0.76973,-3.9464 1.94416,-5.1483 1.14754,-1.1742 2.6368,-1.6968 4.834,-1.6968 l 1.17864,0 0.0708,-0.7685 c 0.18667,-2.0237 0.51215,-3.1283 1.32652,-4.5018 1.09208,-1.8418 2.81124,-3.2382 4.59645,-3.7331 0.93373,-0.2588 2.58683,-0.2061 3.56581,0.1138 1.92508,0.6295 3.59763,2.1666 4.6567,4.2793 0.46507,0.9277 0.94028,2.5413 0.94028,3.1927 0,0.1985 0.0316,0.5918 0.0704,0.8741 l 0.0704,0.5128 1.32402,0.06 c 2.5891,0.1164 4.37219,1.043 5.52832,2.8733 0.98941,1.5661 1.32751,3.1891 1.32751,6.3716 0,6.4366 -1.75513,9.2602 -5.95864,9.5859 l -0.88213,0.068 0.001,-0.8988 c 0.002,-1.3645 0.0265,-1.4113 0.7309,-1.4113 1.63078,0 2.75824,-0.8425 3.2884,-2.4571 0.49346,-1.5029 0.58922,-2.3114 0.58544,-4.9414 -0.004,-2.6306 -0.11742,-3.4132 -0.67116,-4.6236 -0.71881,-1.5709 -2.3087,-2.4257 -4.52238,-2.4316 l -0.75799,0 -0.0505,4.8661 c -0.0466,4.4914 -0.069,4.9359 -0.29055,5.7765 -0.50235,1.9054 -1.19936,3.1748 -2.29393,4.178 -2.39678,2.1966 -6.17351,2.4108 -8.9718,0.5088 l -0.60215,-0.4093 -0.43912,0.4391 c -0.60839,0.6086 -1.30306,0.9909 -2.17116,1.1955 -0.67825,0.16 -2.27396,0.2133 -2.95789,0.099 z m 2.83202,-2.3793 c 0.43347,-0.1807 1.15179,-0.8065 1.15179,-1.0034 0,-0.064 -0.20318,-0.5274 -0.45159,-1.0304 -0.87904,-1.781 -0.93781,-2.226 -0.99803,-7.5603 l -0.0533,-4.7103 -1.32586,0.059 c -3.45409,0.1526 -4.46198,1.6461 -4.47246,6.6279 -0.01,4.7736 1.24407,7.4194 3.69988,7.8057 0.75959,0.1199 1.9282,0.03 2.44947,-0.1875 z m 8.57317,0.054 c 1.51852,-0.3195 2.64183,-1.206 3.30913,-2.6116 0.72077,-1.5185 0.76566,-1.9346 0.76566,-7.1014 l 0,-4.6158 -5.35645,0 -5.35644,0 0.0374,4.809 0.0374,4.8091 0.32367,0.8536 c 0.83488,2.2022 2.27796,3.4698 4.45263,3.9112 0.45494,0.092 1.1972,0.07 1.78711,-0.053 z m 4.04802,-17.4306 c -0.10609,-1.6928 -0.82255,-3.2732 -2.04515,-4.5111 -2.56287,-2.5949 -6.09123,-1.79 -7.89488,1.801 -0.43821,0.8725 -0.61923,1.5624 -0.69611,2.6533 l -0.0703,0.9961 5.38258,0 5.3826,0 -0.0588,-0.9393 z m -215.75656,9.2767 0.0313,-10.4433 0.2531,-0.7436 c 0.82846,-2.4347 2.49398,-4.3477 4.75512,-5.4616 3.38817,-1.6691 7.24799,-0.9442 10.001,1.8785 0.8289,0.85 1.22721,1.422 1.72513,2.4777 0.83245,1.7652 0.78497,1.0473 0.82414,12.4631 l 0.0353,10.2725 -8.82818,0 -8.82818,0 0.0313,-10.4433 z m 7.7144,-3.5591 0,-11.7259 -0.313,0.076 c -1.86545,0.4473 -3.5883,1.805 -4.50554,3.5506 -0.7602,1.4465 -0.75463,1.3647 -0.75682,11.0903 l -0.002,8.7358 2.78866,0 2.78867,0 0,-11.7259 z m 7.71463,2.7622 c -0.0376,-8.8787 -0.0403,-8.9705 -0.28784,-9.7032 -0.59256,-1.7545 -2.0079,-3.386 -3.60281,-4.153 -0.4728,-0.2273 -1.04002,-0.4428 -1.26048,-0.4785 l -0.40084,-0.064 0,11.682 0,11.6815 2.79496,0 2.79495,0 -0.038,-8.9636 z m 7.56246,11.1558 -0.71506,-0.04 0.0323,-11.2914 0.0323,-11.2914 0.25421,-0.7481 c 0.65571,-1.9298 2.40897,-3.6659 4.24135,-4.2003 1.10555,-0.3223 1.8768,-0.3717 2.92519,-0.1875 0.98453,0.1731 2.0385,0.6359 2.82289,1.2397 1.13206,0.8714 2.15982,2.4814 2.43616,3.8164 0.0826,0.3988 0.12486,2.9337 0.12486,7.4839 l 0,6.8807 -5.29278,0 -5.29278,0 0,3.0732 0,3.073 7.39851,0 7.39851,0 0,-12.8618 0,-12.862 1.08133,0 1.08132,0 0,14.0003 0,14.0003 -8.90668,-0.021 c -4.89867,-0.013 -9.22845,-0.04 -9.62174,-0.062 z m 9.99168,-16.0629 c 0,-3.2093 -0.0474,-5.6985 -0.11556,-6.0572 -0.25422,-1.3406 -1.12669,-2.4797 -2.36583,-3.0894 -0.69784,-0.3431 -0.84664,-0.3731 -1.84219,-0.3716 -0.96345,0 -1.15019,0.037 -1.69091,0.3202 -0.8533,0.4469 -1.51552,1.0959 -1.96564,1.9258 l -0.38591,0.7117 -0.0323,6.0043 -0.0321,6.0041 4.2153,0 4.21528,0 0,-5.4479 z m 19.91242,16.0165 c -2.70458,-0.2676 -5.01327,-2.0715 -6.10264,-4.7686 -0.65364,-1.6182 -0.66312,-1.7474 -0.66316,-9.044 -3e-5,-6.0492 0.0206,-6.8172 0.20757,-7.7399 0.7137,-3.5216 2.79814,-5.828 5.62242,-6.2213 2.63988,-0.3677 4.81404,0.7894 6.35579,3.3825 0.10566,0.1779 0.16558,0.1297 0.48528,-0.39 1.4002,-2.2755 3.76686,-3.3987 6.27186,-2.976 2.49896,0.4214 4.54876,2.5683 5.38096,5.6356 0.23722,0.8743 0.2488,1.1693 0.29045,7.3985 0.0295,4.4006 0.002,6.7709 -0.0838,7.3673 -0.13501,0.9336 -0.53492,2.2325 -0.87658,2.847 -0.25147,0.4523 -1.3799,1.995 -1.5248,2.0845 -0.64352,0.3977 1.54506,0.305 2.77117,-0.1174 1.94679,-0.6709 3.45953,-2.3086 4.02276,-4.3554 0.15597,-0.5669 0.18859,-2.0268 0.24181,-10.8142 l 0.0615,-10.1586 1.06592,0 1.06592,0 -0.002,9.8743 c -10e-4,5.9434 -0.0476,10.1912 -0.1158,10.6708 -0.43025,3.0199 -2.44095,5.6061 -5.23644,6.7353 -1.42786,0.5767 -1.84166,0.6018 -10.46696,0.6336 -4.41347,0.017 -8.36047,0 -8.77106,-0.043 z m 4.4185,-11.5077 c -0.0399,-10.3845 6e-4,-9.8114 -0.81424,-11.5245 -0.69917,-1.4699 -1.73808,-2.331 -3.063,-2.5387 -0.76825,-0.1206 -1.7495,0.013 -2.33912,0.3106 -0.62271,0.3177 -1.57789,1.3931 -1.95279,2.1986 -0.74267,1.5956 -0.7272,1.4184 -0.76828,8.8055 -0.0412,7.4231 -0.0235,7.6715 0.65223,9.0871 0.66885,1.4015 1.91776,2.4366 3.43084,2.8436 0.42675,0.1151 1.26361,0.1671 2.75179,0.1723 l 2.13856,0.012 -0.0361,-9.362 z m 6.94359,8.9904 c 2.02627,-0.7097 3.51694,-2.311 4.07665,-4.3796 0.2397,-0.886 0.38055,-11.9419 0.17196,-13.4968 -0.13985,-1.0425 -0.54874,-2.3491 -0.95041,-3.0369 -0.3376,-0.5782 -1.32693,-1.5773 -1.80906,-1.8269 -0.55918,-0.2897 -1.5431,-0.4315 -2.28967,-0.3302 -2.07014,0.2811 -3.56969,2.4207 -3.82453,5.4571 -0.0395,0.4699 -0.0586,4.7159 -0.0426,9.4354 l 0.0291,8.5809 1.90583,-0.056 c 1.65904,-0.048 2.01285,-0.094 2.73259,-0.3465 z m 108.75656,2.5638 -0.7114,-0.04 10e-4,-11.0069 c 0.002,-11.8754 0.002,-11.8866 0.60362,-13.0725 1.6392,-3.2348 5.24179,-4.6084 8.32953,-3.1761 1.48024,0.6868 2.61374,1.7782 3.29677,3.1742 0.59876,1.2238 0.62601,1.6136 0.62816,8.9821 l 0.002,6.8007 -5.34967,0 -5.3497,0 0,3.0736 0,3.073 7.4554,0 7.45543,0 0,-12.8619 0,-12.8622 1.08133,0 1.08131,0 0,14.0005 0,14.0002 -8.90667,-0.021 c -4.89866,-0.012 -9.22679,-0.04 -9.61806,-0.063 z m 9.97744,-13.6598 c -0.007,-1.6746 -0.046,-4.3766 -0.0895,-6.0042 -0.078,-2.9214 -0.0829,-2.9672 -0.38617,-3.55 -0.41312,-0.7939 -1.35212,-1.7095 -2.12491,-2.072 -0.54293,-0.2546 -0.78654,-0.2969 -1.71418,-0.2969 -0.9059,0 -1.16973,0.042 -1.62613,0.2683 -1.28232,0.6314 -2.25129,1.9112 -2.47323,3.2666 -0.0609,0.3722 -0.11111,3.0969 -0.11148,6.0547 l -10e-4,5.3782 4.26837,0 4.26836,0 -0.0109,-3.0447 z m 50.71879,13.4418 c -2.54526,-0.5332 -4.46214,-2.4783 -4.82769,-4.8984 -0.15357,-1.017 -0.15929,-7.3175 -0.008,-8.4011 0.28659,-2.0479 1.94298,-4.0632 3.99185,-4.8563 0.76397,-0.2958 2.50755,-0.4069 3.4186,-0.2179 2.38662,0.4954 4.50403,2.6746 4.87516,5.0172 0.0646,0.4069 0.11759,2.4347 0.11806,4.5063 10e-4,4.1241 -0.0777,4.7746 -0.73551,6.0726 -1.11863,2.2073 -3.9875,3.3736 -6.83285,2.7776 z m 3.10851,-2.3262 c 0.9212,-0.3111 1.61075,-0.9692 1.9413,-1.8526 0.23175,-0.6195 0.24298,-0.8409 0.24298,-4.7955 0,-3.9264 -0.0125,-4.1798 -0.23784,-4.7816 -0.30877,-0.8254 -1.2264,-1.7758 -2.11729,-2.1934 -0.56998,-0.267 -0.80247,-0.3091 -1.6856,-0.3048 -0.89177,0 -1.10311,0.046 -1.63225,0.32 -0.81141,0.421 -1.49815,1.0718 -1.90426,1.8048 l -0.33347,0.6021 0,4.3821 0,4.3823 0.27219,0.5529 c 0.46509,0.9448 1.2662,1.584 2.45957,1.9622 0.7378,0.234 2.18127,0.1961 2.99467,-0.079 z"
         id="path11908"
         inkscape:connector-curvature="0" />
    </g>
  </g>
</svg>
