<?xml version="1.0" encoding="UTF-8" standalone="no"?>
<!-- Created with Inkscape (http://www.inkscape.org/) -->

<svg
   xmlns:dc="http://purl.org/dc/elements/1.1/"
   xmlns:cc="http://creativecommons.org/ns#"
   xmlns:rdf="http://www.w3.org/1999/02/22-rdf-syntax-ns#"
   xmlns:svg="http://www.w3.org/2000/svg"
   xmlns="http://www.w3.org/2000/svg"
   xmlns:sodipodi="http://sodipodi.sourceforge.net/DTD/sodipodi-0.dtd"
   xmlns:inkscape="http://www.inkscape.org/namespaces/inkscape"
   width="100"
   height="100"
   viewBox="0 0 26.458333 26.458334"
   version="1.1"
   id="svg8"
   inkscape:version="0.92.3 (unknown)"
   sodipodi:docname="mjSave.svg">
  <defs
     id="defs2" />
  <sodipodi:namedview
     id="base"
     pagecolor="#ffffff"
     bordercolor="#666666"
     borderopacity="1.0"
     inkscape:pageopacity="0.0"
     inkscape:pageshadow="2"
     inkscape:zoom="2.7372529"
     inkscape:cx="32.266298"
     inkscape:cy="54.889896"
     inkscape:document-units="mm"
     inkscape:current-layer="layer1"
     showgrid="false"
     units="px"
     inkscape:window-width="1366"
     inkscape:window-height="715"
     inkscape:window-x="0"
     inkscape:window-y="0"
     inkscape:window-maximized="1" />
  <metadata
     id="metadata5">
    <rdf:RDF>
      <cc:Work
         rdf:about="">
        <dc:format>image/svg+xml</dc:format>
        <dc:type
           rdf:resource="http://purl.org/dc/dcmitype/StillImage" />
        <dc:title></dc:title>
      </cc:Work>
    </rdf:RDF>
  </metadata>
  <g
     inkscape:label="Layer 1"
     inkscape:groupmode="layer"
     id="layer1"
     transform="translate(0,-270.54165)">
    <path
       style="fill:#ffffff;stroke-width:0.03666111;fill-opacity:1"
       d="m 25.904726,294.86985 c 0.02998,-0.0362 0.04733,-2.02406 0.06389,-7.30472 0.02256,-7.19618 0.0221,-7.26112 -0.05434,-7.99109 -0.06904,-0.65932 -0.09665,-0.80056 -0.265154,-1.35645 -0.523281,-1.72638 -1.676205,-3.13489 -3.266161,-3.99023 -0.42412,-0.22816 -0.703148,-0.35003 -1.046487,-0.45707 -0.76461,-0.23836 -0.845626,-0.2561 -1.458012,-0.31921 -0.943116,-0.0972 -1.763027,-0.0177 -2.694587,0.26107 -0.46248,0.13841 -0.677387,0.22795 -1.154574,0.48098 -0.604695,0.32065 -0.706565,0.38982 -1.308404,0.88847 -0.421331,0.34908 -1.089011,1.13347 -1.321129,1.55204 -0.08634,0.15567 -0.165214,0.28346 -0.175295,0.28397 -0.01009,5.1e-4 -0.08013,-0.11863 -0.155654,-0.26472 -0.229848,-0.44462 -0.882569,-1.18876 -1.47577,-1.68246 -0.427646,-0.35593 -0.612246,-0.48016 -1.106768,-0.74484 -0.9404395,-0.50335 -1.6933408,-0.71034 -2.9442823,-0.80945 -0.2005739,-0.0159 -0.5271798,-0.003 -0.9165278,0.0357 -0.5060809,0.0504 -0.7097263,0.0907 -1.2464782,0.24577 -0.5602301,0.16189 -0.7174539,0.22563 -1.2401203,0.50267 -0.4846983,0.25693 -0.6939031,0.39489 -1.0998346,0.72533 -0.5764905,0.46928 -0.5754672,0.46825 -1.0652008,1.07388 -0.532342,0.6583 -0.9190612,1.40276 -1.17268602,2.2575 -0.30355519,1.02299 -0.2906305,0.65041 -0.3161006,9.11248 -0.0149735,4.97496 -0.0100023,7.38463 0.0153673,7.45136 l 0.0374969,0.0986 H 13.200737 c 10.597542,0 12.66955,-0.009 12.703989,-0.0496 z m -23.6052708,-3.4882 v -1.33814 h 5.0042406 5.0042392 v 1.33814 1.33812 H 7.3036958 2.2994552 Z m 11.8048788,0 v -1.33814 h 4.985908 4.985916 v 1.33814 1.33812 H 19.090242 14.104334 Z M 2.3801092,288.01982 c -0.033652,-0.0337 -0.043826,-0.92345 -0.043271,-3.78526 8.011e-4,-4.0626 0.011476,-4.33613 0.2035246,-5.20771 0.3279871,-1.48852 1.6709364,-2.89012 3.2514712,-3.39349 0.2467784,-0.0786 0.4775587,-0.14321 0.5128446,-0.1436 0.060855,-6.3e-4 0.064159,0.32287 0.064159,6.28667 v 6.28738 H 4.3964701 c -1.4851824,0 -1.9832345,-0.0108 -2.0163609,-0.044 z m 5.9684315,-6.22506 c 0,-5.09386 0.00888,-6.26905 0.047263,-6.26905 0.1624642,0 0.8388831,0.25857 1.2299401,0.47016 1.4556822,0.7876 2.4865752,2.34005 2.6438062,3.98137 0.05755,0.60096 0.05241,7.98455 -0.0054,8.04258 -0.03311,0.0331 -0.523034,0.044 -1.979703,0.044 H 8.3488011 Z m 5.8364473,6.22506 c -0.06928,-0.0692 -0.06161,-7.43565 0.0084,-8.06279 0.267257,-2.39435 2.109237,-4.27137 4.448215,-4.53285 0.481772,-0.0539 0.565377,-0.0537 1.06317,0.002 0.419008,0.0469 0.640825,0.0935 0.988204,0.20754 1.225193,0.40234 2.29815,1.32364 2.901904,2.49173 0.205276,0.39714 0.228774,0.46754 0.29587,0.88637 0.178185,1.11225 0.185389,1.31651 0.185389,5.25498 0,2.83593 -0.0103,3.71939 -0.04399,3.75303 -0.06389,0.064 -9.783258,0.064 -9.847171,0 z"
       id="path839"
       inkscape:connector-curvature="0"
       sodipodi:nodetypes="csssccsccccccccscsscccsccscccccccccccccccccccscsccscsssssscscsccsccscsccc" />
  </g>
</svg>
